<svg xmlns="http://www.w3.org/2000/svg" viewBox="0 0 500 500"><g id="freepik--background-complete--inject-104"><path d="M255,180.41A23.17,23.17,0,1,1,223,173.19,23.14,23.14,0,0,1,255,180.41Z" style="fill:#f5f5f5"></path><path d="M250.28,183.35a17.65,17.65,0,1,1-24.32-5.5A17.63,17.63,0,0,1,250.28,183.35Z" style="fill:#ebebeb"></path><path d="M250,182.88c-.09.06-.57-.55-1.53-1.54a18.44,18.44,0,0,0-4.61-3.5,18.22,18.22,0,0,0-3.68-1.47,17.85,17.85,0,0,0-4.5-.62,16.94,16.94,0,0,0-2.44.16,17.38,17.38,0,0,0-5,1.46,18.62,18.62,0,0,0-2.37,1.34,19.76,19.76,0,0,0-2.13,1.69,18.32,18.32,0,0,0-1.8,1.95,16.68,16.68,0,0,0-1.42,2.12,15.93,15.93,0,0,0-1.06,2.21,17.69,17.69,0,0,0-1.12,4.4,18,18,0,0,0,1.5,9.54,10.35,10.35,0,0,1,.86,2c-.07,0-.61-.53-1.33-1.76a16.13,16.13,0,0,1-2-5.69,17.88,17.88,0,0,1,.92-8.93,17.16,17.16,0,0,1,1.1-2.4,17.49,17.49,0,0,1,1.51-2.3,18.2,18.2,0,0,1,1.92-2.12,19.54,19.54,0,0,1,2.29-1.83,19.76,19.76,0,0,1,2.57-1.44,18,18,0,0,1,2.68-1,17.17,17.17,0,0,1,2.7-.53A17.87,17.87,0,0,1,244.33,177a16.48,16.48,0,0,1,4.53,4A5.47,5.47,0,0,1,250,182.88Z" style="fill:#e0e0e0"></path><path d="M242.64,200.6l1.68,2.58-2.3,1.49-1.64-2.5a13,13,0,0,1-6.92,1.88l-.56-3.63a11.13,11.13,0,0,0,5.53-1.27l-2.5-3.85c-3,1-6.37,2-8.51-1.25-1.59-2.44-1.17-5.68,2.19-8.46L228,183l2.31-1.49,1.63,2.51a12.35,12.35,0,0,1,5.58-1.64l.69,3.58a11.3,11.3,0,0,0-4.3,1.1L236.4,191c2.95-1.06,6.31-2,8.42,1.21C246.38,194.61,246,197.82,242.64,200.6Zm-8.91-8.68-2.13-3.27c-1,1.07-1.09,2-.59,2.81S232.51,192.26,233.73,191.92Zm7.56,3c-.52-.81-1.47-.81-2.69-.52l2.07,3.18C241.65,196.56,241.77,195.63,241.29,194.9Z" style="fill:#e0e0e0"></path><polygon points="209.98 429.76 76.41 429.76 88.57 306.69 197.44 306.69 209.98 429.76" style="fill:#f5f5f5"></polygon><path d="M114.68,319.18a3.08,3.08,0,1,1-3.07-3.08A3.07,3.07,0,0,1,114.68,319.18Z" style="fill:#e0e0e0"></path><path d="M175.72,319.18a3.08,3.08,0,1,1-3.08-3.08A3.08,3.08,0,0,1,175.72,319.18Z" style="fill:#e0e0e0"></path><path d="M174.31,319.18h-1V287.69a31,31,0,0,0-62,0v31.49h-1V287.69a32,32,0,0,1,64,0Z" style="fill:#e0e0e0"></path><polygon points="480.91 429.76 347.34 429.76 359.5 306.69 468.37 306.69 480.91 429.76" style="fill:#f5f5f5"></polygon><path d="M385.61,319.18a3.08,3.08,0,1,1-3.07-3.08A3.07,3.07,0,0,1,385.61,319.18Z" style="fill:#e0e0e0"></path><path d="M446.65,319.18a3.08,3.08,0,1,1-3.08-3.08A3.08,3.08,0,0,1,446.65,319.18Z" style="fill:#e0e0e0"></path><path d="M445.24,319.18h-1V287.69a31,31,0,0,0-62,0v31.49h-1V287.69a32,32,0,0,1,64,0Z" style="fill:#e0e0e0"></path><polygon points="96.69 428.5 27.2 428.5 33.53 354.59 90.16 354.59 96.69 428.5" style="fill:#ebebeb"></polygon><circle cx="46.07" cy="363.54" r="1.6" style="fill:#e0e0e0"></circle><circle cx="77.82" cy="363.54" r="1.6" style="fill:#e0e0e0"></circle><path d="M78.87,363.54H78V347.15a15.95,15.95,0,0,0-31.89,0v16.39h-.88V347.15a16.83,16.83,0,0,1,33.65,0Z" style="fill:#e0e0e0"></path><path d="M82.41,393.77s-5.27-11.2-6.08-12a7.58,7.58,0,0,0-1.92-1.24,11.47,11.47,0,0,0-1.22-.55l-.08,0h0c-2.28-.88-5.84-1.79-5.84-1.79s-.91,3.24-5.22,3.48c-4.32-.24-5.23-3.48-5.23-3.48S53.26,379,51,379.9h0l-.09,0a10.38,10.38,0,0,0-1.21.55,7.65,7.65,0,0,0-1.93,1.24c-.81.85-6.08,12-6.08,12l7.71,4,2.34-5.59-.53,20.25H73l-.66-20.25,2.34,5.59Z" style="fill:#e0e0e0"></path><polygon points="279.34 428.5 187.35 428.5 195.73 330.65 270.7 330.65 279.34 428.5" style="fill:#ebebeb"></polygon><circle cx="212.33" cy="342.5" r="2.12" style="fill:#e0e0e0"></circle><circle cx="254.36" cy="342.5" r="2.12" style="fill:#e0e0e0"></circle><path d="M255.75,342.5h-1.16V320.81a21.11,21.11,0,0,0-42.22,0V342.5h-1.16V320.81a22.27,22.27,0,1,1,44.54,0Z" style="fill:#e0e0e0"></path><path d="M112.11,86.73a25,25,0,1,0-26.49,4.45,11.47,11.47,0,0,1,4.49,3.87c2.11,3,3.81,6.32,6.13,10.26l11.25,19.14,5.42,8.82c4.74,7.84,11.89,20.73,16.7,28.52,4.11,6.65,10,13.22,18,14.9,3.89.82,7.57.45,12.62-.38-19.93-33.89-36.55-62.13-51.14-86.92C110.11,88.48,111.12,87.62,112.11,86.73Zm-6.23-12.5a12.2,12.2,0,0,1-16.35,4.41A11.91,11.91,0,0,1,85,62.11a12.14,12.14,0,0,1,16.3-4.52A12.3,12.3,0,0,1,105.88,74.23Z" style="fill:#ebebeb"></path><path d="M91.09,43.57a25,25,0,0,0-5.43,47.61,11.62,11.62,0,0,1,4.48,3.88l2.79,4.42,19.51-4.72-3.33-5.37c1-.9,2-1.76,3-2.65a25,25,0,0,0-21-43.17Zm10.26,14A12.06,12.06,0,1,1,89.57,78.65a11.91,11.91,0,0,1-4.52-16.54A12.13,12.13,0,0,1,101.35,57.6Z" style="fill:#e0e0e0"></path><path d="M91.09,43.57a25,25,0,0,0-5.43,47.61,11.62,11.62,0,0,1,4.48,3.88l2.79,4.42,19.51-4.72-3.33-5.37c1-.9,2-1.76,3-2.65a25,25,0,0,0-21-43.17Zm10.26,14A12.06,12.06,0,1,1,89.57,78.65a11.91,11.91,0,0,1-4.52-16.54A12.13,12.13,0,0,1,101.35,57.6Z" style="fill:none"></path><path d="M112.44,94.76l.25.47.76,1.34c.69,1.18,1.69,2.91,3,5.14,2.6,4.46,6.35,10.9,11,18.85l16.32,27.95q4.62,7.89,9.65,16.49,2.52,4.29,5.11,8.73l1.3,2.22.16.28.09.14,0,0c.23-.57,0-.15.08-.27l-.08,0-.62.16-1.25.34-1.27.24-.64.12-.64.06-1.3.14-1.3,0a9.56,9.56,0,0,1-1.31,0c-.43,0-.86,0-1.29-.09a23.85,23.85,0,0,1-2.55-.46,22.43,22.43,0,0,1-4.81-1.73,28.64,28.64,0,0,1-7.93-6.08c-.58-.58-1.09-1.23-1.61-1.85s-1-1.29-1.48-1.94c-.23-.33-.5-.64-.7-1l-.61-1L129.5,161l-4.76-8c-6.22-10.47-11.81-19.9-16.51-27.83L97.07,106.32l-3-5.08-.81-1.32c-.18-.3-.28-.44-.28-.44s.08.16.25.46l.77,1.34,3,5.12L108,125.22l16.43,27.88,4.76,8.06c.41.68.81,1.37,1.22,2.07l.62,1c.2.35.47.67.7,1,.49.66.95,1.34,1.5,2s1,1.29,1.63,1.88a29,29,0,0,0,8,6.17,23.07,23.07,0,0,0,4.9,1.76,24.61,24.61,0,0,0,2.59.47c.44,0,.88.06,1.32.09a9.85,9.85,0,0,0,1.33,0l1.33,0,1.31-.14.66-.07.65-.12,1.29-.24,1.27-.34.63-.17.08,0c.06-.14-.08.28.14-.31l0,0-.08-.14-.16-.28c-.44-.75-.87-1.49-1.31-2.22q-2.59-4.44-5.11-8.72L144,148.32l-16.39-27.9-11.09-18.79-3-5.1c-.34-.58-.61-1-.79-1.32Z" style="fill:#e0e0e0"></path><path d="M86.84,121.49l98.84,20.29c-.84-5.05-1.67-8.65-3.71-12.06-4.18-7-12.29-10.46-19.92-12.19-8.93-2-23.45-4.63-32.4-6.58l-10.11-2.28-21.76-4.46c-4.48-.92-8.16-1.46-11.7-2.49a11.53,11.53,0,0,1-5.12-3,25,25,0,1,0,4.35,26.49C85.83,124,86.32,122.76,86.84,121.49Zm-32.62,2.93a12.11,12.11,0,0,1-1-16.87,11.93,11.93,0,0,1,17.12-1.07,12.16,12.16,0,0,1,1.11,16.88A12.33,12.33,0,0,1,54.22,124.42Z" style="fill:#ebebeb"></path><path d="M116.34,121.92s.43-.29,1.07-.94a5.83,5.83,0,0,0,1.59-3.44,5.66,5.66,0,0,0-.33-2.59,5.68,5.68,0,0,0-8.21-2.88,5.69,5.69,0,0,0-2.31,2.65,5.61,5.61,0,0,0-.35,3.26,5.67,5.67,0,0,0,3.42,4.21,5.88,5.88,0,0,0,3.78.23c.88-.25,1.32-.54,1.34-.5a2,2,0,0,1-.31.21,4.83,4.83,0,0,1-1,.44,5.82,5.82,0,0,1-3.92-.11,5.9,5.9,0,0,1-2.27-1.57,6,6,0,0,1-1.42-2.84,6,6,0,0,1,9.72-5.81,6.06,6.06,0,0,1,1.83,2.59,5.93,5.93,0,0,1,.3,2.75,5.77,5.77,0,0,1-1.76,3.51,5.37,5.37,0,0,1-.85.66A1.79,1.79,0,0,1,116.34,121.92Z" style="fill:#e0e0e0"></path><path d="M109.34,120.86c-.07-.09,1.79-1.74,4-3.81s4.06-3.79,4.14-3.71a6.13,6.13,0,0,1-1,1.25c-.69.73-1.68,1.71-2.81,2.76s-2.19,1.94-3,2.57A6.49,6.49,0,0,1,109.34,120.86Z" style="fill:#e0e0e0"></path><path d="M117.49,120.79a39.06,39.06,0,0,1-4.3-3.76,40.47,40.47,0,0,1-4-4.06,40.16,40.16,0,0,1,4.3,3.76A41.83,41.83,0,0,1,117.49,120.79Z" style="fill:#e0e0e0"></path><path d="M59.45,140.24a25,25,0,0,0,25.87-15c.53-1.23,1-2.46,1.54-3.73L93,122.94l-1.84-20-5.08-1.21a11.61,11.61,0,0,1-5.12-3,25,25,0,1,0-21.53,41.47Zm-6.2-32.66a11.93,11.93,0,0,1,17.12-1.07,12.16,12.16,0,0,1,1.1,16.88,12.3,12.3,0,0,1-17.23,1.06A12.11,12.11,0,0,1,53.25,107.58Z" style="fill:#e0e0e0"></path><path d="M59.45,140.24a25,25,0,0,0,25.87-15c.53-1.23,1-2.46,1.54-3.73L93,122.94l-1.84-20-5.08-1.21a11.61,11.61,0,0,1-5.12-3,25,25,0,1,0-21.53,41.47Zm-6.2-32.66a11.93,11.93,0,0,1,17.12-1.07,12.16,12.16,0,0,1,1.1,16.88,12.3,12.3,0,0,1-17.23,1.06A12.11,12.11,0,0,1,53.25,107.58Z" style="fill:none"></path><path d="M93,122.94s.18,0,.52.09l1.52.28,5.82,1.15,21.41,4.29L154,135.16,172.76,139l9.92,2,2.52.51.32.06.16,0h0c-.47.4-.13.09-.24.17v-.08l0-.64-.08-1.29-.19-1.28-.09-.64-.15-.63-.29-1.27-.39-1.24a10.63,10.63,0,0,0-.45-1.23c-.17-.4-.33-.8-.51-1.19A20.72,20.72,0,0,0,182,130a23.35,23.35,0,0,0-3.19-4,28.77,28.77,0,0,0-8.32-5.53c-.74-.36-1.51-.63-2.28-.93s-1.54-.52-2.31-.77c-.39-.11-.76-.26-1.16-.34l-1.18-.24-2.36-.49-9.16-1.91-31.69-6.62L99,104.67l-5.81-1.25-1.5-.33-.52-.13.52.09,1.52.3L99,104.51l21.39,4.38,31.71,6.54,9.17,1.9,2.36.48,1.18.25a12.21,12.21,0,0,1,1.18.34c.78.25,1.58.47,2.34.78s1.56.57,2.3.94a28.89,28.89,0,0,1,8.44,5.6,23.33,23.33,0,0,1,3.25,4.07,22.24,22.24,0,0,1,1.28,2.3c.19.4.34.81.52,1.21a9.37,9.37,0,0,1,.46,1.25l.4,1.26.29,1.29.15.65.1.65.18,1.3.09,1.31,0,.65v.08c-.11.1.24-.17-.24.23h0l-.16,0-.32-.06-2.52-.51-9.91-2L154,135.52,122.23,129l-21.38-4.41L95,123.39l-1.51-.32Z" style="fill:#e0e0e0"></path><path d="M345.16,76.12a30.66,30.66,0,1,1-8.9-42.39A30.62,30.62,0,0,1,345.16,76.12Z" style="fill:#f5f5f5"></path><path d="M339.05,72.13a23.37,23.37,0,1,1-6.78-32.31A23.34,23.34,0,0,1,339.05,72.13Z" style="fill:#ebebeb"></path><path d="M339.45,71.51a14.25,14.25,0,0,1,1-2.69,24.64,24.64,0,0,0,1.67-7.47,23.74,23.74,0,0,0-.26-5.24,23.28,23.28,0,0,0-1.74-5.75,20.81,20.81,0,0,0-1.53-2.86,21.41,21.41,0,0,0-2-2.72,22.87,22.87,0,0,0-5.41-4.58A24.9,24.9,0,0,0,328,38.56a23.47,23.47,0,0,0-3.33-1.08,22.94,22.94,0,0,0-6.59-.61,23.22,23.22,0,0,0-5.9,1.09,23.8,23.8,0,0,0-4.79,2.16A25.1,25.1,0,0,0,301.49,45c-1.21,1.37-1.8,2.22-1.92,2.14A6.88,6.88,0,0,1,301,44.58a21.51,21.51,0,0,1,5.75-5.53A23.29,23.29,0,0,1,318,35.23a22.46,22.46,0,0,1,3.48,0,23.91,23.91,0,0,1,7.21,1.69,24.11,24.11,0,0,1,6.62,4,23.28,23.28,0,0,1,2.66,2.69,22.66,22.66,0,0,1,2.13,3,23.38,23.38,0,0,1,1.6,3.1,24.09,24.09,0,0,1,1.69,6.19,23.78,23.78,0,0,1,0,5.58,21.48,21.48,0,0,1-2.29,7.64C340.22,70.78,339.54,71.57,339.45,71.51Z" style="fill:#e0e0e0"></path><path d="M314.08,72.44l-2.18,3.43-3.07-1.94L311,70.58a17.16,17.16,0,0,1-6.09-7.3l4.06-2.67a14.71,14.71,0,0,0,4.58,6l3.25-5.12c-2.89-3-6-6.54-3.19-10.93,2.07-3.25,6.2-4.55,11.4-2l2.16-3.41L330.2,47l-2.12,3.35a16.51,16.51,0,0,1,5,5.82L329.19,59a14.79,14.79,0,0,0-3.68-4.58l-3.31,5.22c2.9,3,5.92,6.47,3.18,10.79C323.35,73.63,319.27,74.91,314.08,72.44Zm5.54-15.52,2.76-4.35c-1.86-.67-3.07-.18-3.71.83S318.54,55.64,319.62,56.92Zm.58,10.75c.69-1.08.17-2.22-.86-3.52l-2.69,4.23C318.4,69,319.58,68.65,320.2,67.67Z" style="fill:#e0e0e0"></path><path d="M469,161a23.17,23.17,0,1,1-31.91-7.22A23.15,23.15,0,0,1,469,161Z" style="fill:#f5f5f5"></path><path d="M464.35,163.94a17.65,17.65,0,1,1-24.33-5.5A17.64,17.64,0,0,1,464.35,163.94Z" style="fill:#ebebeb"></path><path d="M464.05,163.48c-.09.06-.57-.56-1.53-1.55a19,19,0,0,0-4.6-3.5,18.32,18.32,0,0,0-3.69-1.47,17.77,17.77,0,0,0-4.49-.61,15.72,15.72,0,0,0-2.45.15,17.14,17.14,0,0,0-2.5.53,18.19,18.19,0,0,0-2.48.93,17.15,17.15,0,0,0-4.5,3,17.14,17.14,0,0,0-1.79,1.94,16.77,16.77,0,0,0-1.43,2.12,16.5,16.5,0,0,0-1.06,2.21,17.33,17.33,0,0,0-1.11,4.4,17.6,17.6,0,0,0,0,4,18.48,18.48,0,0,0,1.51,5.58,10.15,10.15,0,0,1,.86,2c-.06,0-.61-.53-1.33-1.75a16.51,16.51,0,0,1-2-5.69,17.54,17.54,0,0,1-.15-4.21,18,18,0,0,1,1.07-4.73,17.62,17.62,0,0,1,1.09-2.4,17.83,17.83,0,0,1,3.43-4.41,19.73,19.73,0,0,1,2.3-1.84,19,19,0,0,1,2.56-1.44,18.4,18.4,0,0,1,2.68-1,17.44,17.44,0,0,1,2.7-.54,17.95,17.95,0,0,1,7.42.67,17.65,17.65,0,0,1,3.84,1.71,16.33,16.33,0,0,1,4.53,4A5.17,5.17,0,0,1,464.05,163.48Z" style="fill:#e0e0e0"></path><path d="M456.7,181.19l1.68,2.58-2.3,1.5-1.63-2.51a13,13,0,0,1-6.93,1.88L447,181a11.11,11.11,0,0,0,5.53-1.27L450,175.9c-3,1-6.37,2-8.51-1.25-1.58-2.44-1.17-5.69,2.2-8.47L442,163.63l2.3-1.5,1.63,2.51a12.4,12.4,0,0,1,5.59-1.63l.69,3.58a11.22,11.22,0,0,0-4.31,1.09l2.55,3.91c2.94-1.06,6.3-2,8.41,1.21C460.44,175.2,460,178.41,456.7,181.19Zm-8.91-8.68-2.12-3.27c-1,1.07-1.09,2.06-.6,2.82S446.57,172.85,447.79,172.51Zm7.57,3c-.53-.81-1.48-.81-2.69-.51l2.06,3.17C455.72,177.15,455.84,176.23,455.36,175.49Z" style="fill:#e0e0e0"></path></g><g id="freepik--Floor--inject-104"><path d="M479.42,429.7c0,.14-103.62.26-231.41.26s-231.43-.12-231.43-.26,103.6-.26,231.43-.26S479.42,429.55,479.42,429.7Z" style="fill:#263238"></path></g><g id="freepik--Label--inject-104"><path d="M262.4,100.68,229.08,45.13a6.44,6.44,0,0,0-4.18-3l-30.1-6.53a6.41,6.41,0,0,0-7.48,4.37l-9.15,29.4a6.43,6.43,0,0,0,.59,5.14L212.08,130a6.42,6.42,0,0,0,8.77,2.31l39.24-22.89A6.41,6.41,0,0,0,262.4,100.68ZM201.94,56.07A6,6,0,1,1,204.66,48,6,6,0,0,1,201.94,56.07Z" style="fill:#14B017"></path><path d="M262.4,100.68,229.08,45.13a6.44,6.44,0,0,0-4.18-3l-30.1-6.53a6.41,6.41,0,0,0-7.48,4.37l-9.15,29.4a6.43,6.43,0,0,0,.59,5.14L212.08,130a6.42,6.42,0,0,0,8.77,2.31l39.24-22.89A6.41,6.41,0,0,0,262.4,100.68ZM201.94,56.07A6,6,0,1,1,204.66,48,6,6,0,0,1,201.94,56.07Z" style="fill:none"></path><path d="M201.94,56.07s.47-.28,1.17-.9a6,6,0,0,0,1.88-3.4,5.79,5.79,0,1,0-8.31,4.13,6,6,0,0,0,3.84.55c.93-.18,1.4-.43,1.42-.38a1.22,1.22,0,0,1-.33.2,4.59,4.59,0,0,1-1.05.38,6,6,0,0,1-4-.42,6.18,6.18,0,0,1-3.47-4.85,6.07,6.07,0,0,1,.65-3.58,6.2,6.2,0,0,1,6.64-3.3,6.21,6.21,0,0,1,5,7.34,6,6,0,0,1-2.11,3.48,4.36,4.36,0,0,1-.94.6A1.5,1.5,0,0,1,201.94,56.07Z" style="fill:#263238"></path><path d="M262.4,100.68s.13.21.35.63a6.64,6.64,0,0,1,.55,2,6.5,6.5,0,0,1-.57,3.35,6.76,6.76,0,0,1-1.26,1.8,8.79,8.79,0,0,1-2,1.46l-25.59,15-8.48,5-4.52,2.64a6.65,6.65,0,0,1-5.42.48,6.35,6.35,0,0,1-2.43-1.5,10.67,10.67,0,0,1-1.68-2.34l-3-5q-3-5-6.24-10.37L188.73,91.6l-7.07-11.78-1.8-3L179,75.31a10.48,10.48,0,0,1-.85-1.59,6.7,6.7,0,0,1-.37-3.63,15.45,15.45,0,0,1,.48-1.75l.53-1.71c2.84-9.13,5.62-18,8.29-26.64a6.75,6.75,0,0,1,4.79-4.61,6.9,6.9,0,0,1,3.38,0l3.2.7,12.43,2.7,11.82,2.57c1,.23,1.9.39,2.87.66a6.51,6.51,0,0,1,2.55,1.49,9.42,9.42,0,0,1,1.69,2.33l1.43,2.39L241.7,65.82,256.89,91.3,261,98.24l1.06,1.82c.23.4.34.62.34.62s-.14-.2-.39-.6-.62-1-1.1-1.78l-4.19-6.89L241.39,66,230.82,48.46c-.47-.79-.95-1.59-1.44-2.39a8.8,8.8,0,0,0-1.62-2.23,6.06,6.06,0,0,0-2.38-1.38c-.89-.25-1.88-.42-2.83-.64l-11.83-2.55-12.43-2.69-3.19-.69a6.5,6.5,0,0,0-3.16,0,6.2,6.2,0,0,0-4.42,4.27c-2.67,8.61-5.44,17.52-8.28,26.65l-.53,1.7a14.31,14.31,0,0,0-.47,1.69,6.14,6.14,0,0,0,.34,3.34A9.37,9.37,0,0,0,179.4,75l.9,1.51,1.81,3,7.06,11.79,13.35,22.29L208.74,124l3,5a10,10,0,0,0,1.59,2.25,6,6,0,0,0,2.27,1.4,6.22,6.22,0,0,0,5.07-.44l4.52-2.62q4.44-2.57,8.5-4.94l25.67-14.87a8.2,8.2,0,0,0,2-1.41,6.21,6.21,0,0,0,1.85-5A7,7,0,0,0,262.4,100.68Z" style="fill:#263238"></path><path d="M197.1,91.48c-3.25-5.42-1.81-10.73,2.8-13.5s10-1.58,13.27,3.84,1.82,10.73-2.83,13.53S200.39,96.94,197.1,91.48Zm10.66-6.41c-1.91-3.17-3.79-3.76-5.31-2.84s-1.89,2.84,0,6,3.87,3.7,5.3,2.84S209.67,88.25,207.76,85.07Zm10.91-17.83,6.45-3.88-2.57,44.2-6.44,3.88ZM228.1,93c-3.26-5.42-1.87-10.7,2.79-13.5s10-1.58,13.28,3.84S246,94,241.33,96.83,231.38,98.42,228.1,93Zm10.65-6.41c-1.91-3.17-3.83-3.73-5.3-2.84s-1.89,2.84,0,6,3.83,3.73,5.3,2.84S240.66,89.73,238.75,86.55Z" style="fill:#fff"></path></g><g id="freepik--speech-bubble--inject-104"><path d="M322.85,172.45l-10.4-1.22a33.42,33.42,0,1,1,6.74-9.9v0Z" style="fill:#fff"></path><path d="M322.85,172.45s-.06-.23-.21-.7-.37-1.21-.66-2.11c-.6-1.93-1.49-4.73-2.64-8.37l-.08-.26-.18.21h0l.25.16A33.45,33.45,0,0,0,322.18,145a32.89,32.89,0,0,0-2.59-10.43A33.46,33.46,0,0,0,302,116.89a33.57,33.57,0,0,0-40.82,11.39,33.58,33.58,0,0,0-5.93,15.13,34.26,34.26,0,0,0,1.58,15.43,33,33,0,0,0,7.7,12.41,33.67,33.67,0,0,0,33.91,8.69,33.31,33.31,0,0,0,14.09-8.61l-.12,0,7.8.82,2,.19.65.06s-.25,0-.7-.11l-2-.26-7.68-1h-.07l-.05,0a33.2,33.2,0,0,1-47.35-.31,32.63,32.63,0,0,1-7.53-12.19,33.69,33.69,0,0,1-1.52-15.13,33.09,33.09,0,0,1,32-28.75,33.13,33.13,0,0,1,31.15,20.05,32.42,32.42,0,0,1,2.6,10.27,33.37,33.37,0,0,1-2.67,16.2l-.44,1,.69-.86h0l-.25,0,2.78,8.21.74,2.13C322.75,172.19,322.85,172.45,322.85,172.45Z" style="fill:#263238"></path><polygon points="272.74 149.06 276.86 144.66 285.31 151.67 300.9 135.62 305 139.74 284.99 159.91 272.74 149.06" style="fill:#14B017"></polygon></g><g id="freepik--Character--inject-104"><path d="M243,275.51l-83.66-38.08,2.93-2.74c6-5.66,14-7.36,21.32-4.55l49.6,18.08,8.33,6,.72,7.11,9.24,5.57Z" style="fill:#e0e0e0"></path><path d="M243,275.51s.19-.22.55-.6l1.63-1.68,6.22-6.38,0,.18-9.27-5.53-.07,0v-.09c-.23-2.2-.48-4.58-.74-7.1l.07.13-8.34-6,.05,0-28.37-10.3-16.21-5.9-4.22-1.53c-.71-.27-1.42-.51-2.12-.75a21.14,21.14,0,0,0-2.19-.53,19.26,19.26,0,0,0-9,.49,21.52,21.52,0,0,0-6.3,3.15,63.11,63.11,0,0,0-5.16,4.58l-.07-.43,59.47,27.18,17.66,8.12,4.77,2.22,1.24.58.42.22-.41-.17-1.23-.54-4.77-2.12-17.68-8-59.68-27-.36-.16.29-.26a67.24,67.24,0,0,1,5.2-4.62,22,22,0,0,1,6.46-3.22,19.63,19.63,0,0,1,9.28-.51,21.1,21.1,0,0,1,2.25.55c.72.24,1.45.49,2.15.75l4.22,1.54,16.2,5.92L233.25,248h0l0,0,8.31,6.06.07,0v.08c.24,2.51.48,4.89.7,7.1l-.08-.12,9.22,5.61.14.08-.11.11c-2.75,2.73-4.88,4.86-6.35,6.33L243.56,275C243.19,275.34,243,275.51,243,275.51Z" style="fill:#263238"></path><path d="M229.87,376.84,202.76,205.76a17.12,17.12,0,0,0-7.33-11.71l-68.12-46.27a17.16,17.16,0,0,0-22.92,3.34L52.31,214.91a17.18,17.18,0,0,0-3.68,13.32L75.74,399.31A17.14,17.14,0,0,0,95.18,413.8l120.2-17.52A17.14,17.14,0,0,0,229.87,376.84ZM124.54,205.75a16.1,16.1,0,1,1,14.8-17.3A16.1,16.1,0,0,1,124.54,205.75Z" style="fill:#14B017"></path><path d="M229.87,376.84,202.76,205.76a17.12,17.12,0,0,0-7.33-11.71l-68.12-46.27a17.16,17.16,0,0,0-22.92,3.34L52.31,214.91a17.18,17.18,0,0,0-3.68,13.32L75.74,399.31A17.14,17.14,0,0,0,95.18,413.8l120.2-17.52A17.14,17.14,0,0,0,229.87,376.84ZM124.54,205.75a16.1,16.1,0,1,1,14.8-17.3A16.1,16.1,0,0,1,124.54,205.75Z" style="fill:none"></path><path d="M124.54,205.75a26.89,26.89,0,0,0,3.85-.91,15.1,15.1,0,0,0,4.08-2.12,15.91,15.91,0,0,0,5.25-19.57,14.94,14.94,0,0,0-2.47-3.82,18.78,18.78,0,0,0-1.66-1.68,17.35,17.35,0,0,0-2-1.4A15.8,15.8,0,0,0,113,177.7a18.19,18.19,0,0,0-1.71,1.69,19.33,19.33,0,0,0-1.39,1.91,15.13,15.13,0,0,0-1.84,4.17A15.95,15.95,0,0,0,116.23,204a15.42,15.42,0,0,0,4.37,1.46,27,27,0,0,0,3.94.3l-.26,0-.77.05a7.52,7.52,0,0,1-1.25,0,10.26,10.26,0,0,1-1.7-.17,15.53,15.53,0,0,1-4.46-1.4,16.31,16.31,0,0,1-8.56-10.31,16.29,16.29,0,0,1,0-8.6,15.3,15.3,0,0,1,1.88-4.3,14.86,14.86,0,0,1,3.19-3.72,16.24,16.24,0,0,1,19.27-1.5,15.07,15.07,0,0,1,3.73,3.18,15.43,15.43,0,0,1,2.52,4,16.32,16.32,0,0,1,1.35,8.49A16.24,16.24,0,0,1,132.64,203a15.6,15.6,0,0,1-4.19,2.08,11.59,11.59,0,0,1-1.65.43,7.85,7.85,0,0,1-1.24.2l-.76.07Z" style="fill:#263238"></path><path d="M229.87,376.84s.1.64.2,1.9a17.65,17.65,0,0,1-.72,5.55c-.09.3-.18.6-.28.91s-.25.62-.39.93a17.78,17.78,0,0,1-1,2,18.45,18.45,0,0,1-3.13,3.88,17.8,17.8,0,0,1-4.88,3.17,12.67,12.67,0,0,1-1.49.56,11.86,11.86,0,0,1-1.58.43c-1.09.24-2.22.39-3.38.56l-78.48,11.53-26,3.8-13.84,2a17.39,17.39,0,0,1-13.64-4.14,16.9,16.9,0,0,1-4.43-6,27.52,27.52,0,0,1-1.78-7.39c-.8-5-1.61-10.13-2.43-15.3q-2.48-15.54-5.08-32c-3.47-21.87-7.11-44.82-10.89-68.62q-2.84-17.84-5.75-36.29c-.49-3.07-1-6.16-1.47-9.25-.25-1.55-.49-3.1-.74-4.65a28.41,28.41,0,0,1-.52-4.73,17.44,17.44,0,0,1,2.64-9.14,40.67,40.67,0,0,1,2.92-3.8l3-3.71Q81,179.33,104,151.24a18.24,18.24,0,0,1,3.27-3.18,17.16,17.16,0,0,1,1.89-1.25,16.09,16.09,0,0,1,2.06-1,17.49,17.49,0,0,1,8.87-1.1,17.84,17.84,0,0,1,4.32,1.18,21.49,21.49,0,0,1,3.86,2.19l7.23,4.92,28.13,19.11,26.77,18.19,3.24,2.2c1.07.75,2.17,1.43,3.19,2.26a17.27,17.27,0,0,1,4.73,6.11,17,17,0,0,1,1.23,3.64c.26,1.26.42,2.49.62,3.73q.59,3.71,1.17,7.36l8.54,54.11c5.21,33.08,9.42,59.85,12.33,78.36,1.45,9.24,2.57,16.43,3.33,21.3.37,2.44.66,4.29.85,5.55s.27,1.89.27,1.89l-.32-1.88q-.31-1.89-.9-5.54c-.79-4.87-1.94-12.05-3.43-21.29-2.95-18.51-7.22-45.27-12.5-78.34-2.63-16.54-5.51-34.65-8.6-54.1q-.59-3.65-1.17-7.35c-.21-1.24-.37-2.49-.62-3.71a17,17,0,0,0-5.82-9.49c-1-.8-2.09-1.49-3.16-2.23l-3.24-2.2-26.78-18.17-28.14-19.1q-3.58-2.44-7.23-4.91a21.06,21.06,0,0,0-3.77-2.15,17.88,17.88,0,0,0-4.2-1.14,16.92,16.92,0,0,0-8.61,1.07,18.22,18.22,0,0,0-2,.94,18.91,18.91,0,0,0-1.84,1.22,17.54,17.54,0,0,0-3.18,3.09l-47.18,57.8c-1,1.24-2,2.47-3,3.71a37.52,37.52,0,0,0-2.89,3.75,17,17,0,0,0-2.56,8.87,27.24,27.24,0,0,0,.52,4.64c.24,1.56.49,3.11.73,4.65q.74,4.65,1.47,9.25,2.91,18.43,5.75,36.3c3.76,23.8,7.39,46.75,10.85,68.62l5.06,32q1.23,7.77,2.42,15.31a27,27,0,0,0,1.74,7.27,16.4,16.4,0,0,0,4.32,5.88,17,17,0,0,0,13.3,4.05l13.83-2,26-3.78,78.51-11.36c1.15-.17,2.28-.31,3.36-.55a11.55,11.55,0,0,0,1.56-.42,10.46,10.46,0,0,0,1.48-.55,17.44,17.44,0,0,0,4.84-3.11A18.6,18.6,0,0,0,227.6,388a20.66,20.66,0,0,0,1-1.93q.19-.48.39-.93c.09-.31.19-.61.28-.9a17.71,17.71,0,0,0,.76-5.52c0-.63-.08-1.1-.1-1.42S229.87,376.84,229.87,376.84Z" style="fill:#263238"></path><path d="M77.13,288.72C74.47,272,83.35,260.29,97.56,258s26.43,6.11,29.09,22.8-6.22,28.43-20.56,30.72S79.81,305.55,77.13,288.72ZM110,283.49c-1.56-9.79-5.62-13.11-10.31-12.36-4.42.7-7.52,5.16-6,14.95s5.9,13.07,10.31,12.36C108.69,297.69,111.52,293.28,110,283.49Zm44.9-33.32L174.73,247,124.18,354.07l-19.86,3.16Zm-2.33,73.21c-2.66-16.69,6.08-28.41,20.42-30.69s26.44,6.11,29.1,22.8-6.22,28.43-20.57,30.72S155.21,340.21,152.53,323.38Zm32.83-5.23c-1.56-9.79-5.77-13.08-10.32-12.36s-7.52,5.16-6,14.95,5.76,13.09,10.31,12.36S186.92,328,185.36,318.15Z" style="fill:#fff"></path><path d="M389.73,76.69a8.69,8.69,0,0,1,7-3.26c1.08,0,2.28.25,3.15-.4a6.78,6.78,0,0,0,1.35-1.88,4.4,4.4,0,0,1,6.27-.76,5.14,5.14,0,0,0,1.36,1.11c2.19.9,4.13-3.24,6.31-2.32a4.9,4.9,0,0,0-2.15,2,2.24,2.24,0,0,0,.51,2.73c2.11,1.54,5-2.6,7.27-1.39,1.25.66,1.6,2.64,3,2.84a4.68,4.68,0,0,0,1.6-.27,3.61,3.61,0,0,1,4.11,2.73c.31,1.54-.3,3.5,1,4.43a3.38,3.38,0,0,0,2.81.13,9.59,9.59,0,0,1-.63,4.21,5.65,5.65,0,0,1,2.6,7.4,12.23,12.23,0,0,1,3.56,3,4.21,4.21,0,0,1,.45,4.43,3.84,3.84,0,0,0-.51.93,2.13,2.13,0,0,0,.1,1.14,19.83,19.83,0,0,1,1.3,4.25c.09,1.49-.85,3.21-2.34,3.22-.35,0-.74-.07-1,.14a1,1,0,0,0-.29.71A10.08,10.08,0,0,0,437,115a4.29,4.29,0,0,1-.19,3.12,1.82,1.82,0,0,1-2.71.59q.87,2.42,1.73,4.83c.35,1,.66,2.12,0,2.9-.84,1-2.6.45-3.42-.6s-1.13-2.43-2-3.46a8.18,8.18,0,0,1-1-1.27c-.19-.38-.29-.85-.65-1.09-.71-.49-1.65.53-1.48,1.38a4.46,4.46,0,0,0,1.52,2,2.21,2.21,0,0,1,.76,2.31c-.18.38-.54.65-.71,1-.58,1.32,1.37,2.37,1.72,3.77a3.45,3.45,0,0,1-1.1,2.87c-.83,1-2.54,1.91-3.22.8-.24-.38-.21-.88-.41-1.28a3.2,3.2,0,0,0-1.13-1.09,6.78,6.78,0,0,1-2.3-3.13c1.21,1.25,2.53,2.93,1.9,4.55a7,7,0,0,1-1.28,1.76c-.89,1.12-1.38,2.51-2.25,3.64s-2.41,2-3.72,1.41a3.22,3.22,0,0,1-5.07,3.69,2.76,2.76,0,0,0-.95-.69,2.24,2.24,0,0,0-1.24.15,7,7,0,0,1-7-2.07l1.23-.56c-2.53-.09-5.17-.21-7.38-1.44s-3.83-3.94-3-6.32c.38-1,1.18-2.12.68-3.1a2.73,2.73,0,0,0-1.9-1.1l-9.21-2.3a8.44,8.44,0,0,1-4.13-1.89c-1.08-1.1-1.35-3.13-.16-4.09a8.24,8.24,0,0,0-3.4-3.06c-1.57-.75-3.33-1-4.93-1.66s-3.12-2-3.18-3.77,2.2-3.29,3.51-2.15c-.48-2.57-5.13-2.3-5.77-4.84-.52-2.07,2.06-3.41,3.29-5.15-.35-.7-1.14-1.09-1.51-1.78-.77-1.45.65-3.11,2.06-3.95s3.15-1.73,3.36-3.36-1.37-3.38-.63-4.9A1.87,1.87,0,0,1,374.2,85c.91-3.11,6.76-1.38,8.14-4.31a1.13,1.13,0,0,0,.12-.74,1.25,1.25,0,0,0-.34-.56,13,13,0,0,0-2.66-1.67,2.54,2.54,0,0,1-1.4-2.58c.28-1,2.14-1.16,2.22-.11a2.31,2.31,0,0,1,3.6.55A2.5,2.5,0,0,1,387,75a7.2,7.2,0,0,1,2.46,2.33" style="fill:#263238"></path><path d="M407,108.44c-1.43-4.18-5-7.28-8.8-9.53a11.35,11.35,0,0,0-5.18-1.86,4.75,4.75,0,0,0-4.58,2.51l.61,3c.19,4.92,4.44,8.58,6.77,12.92,1,1.88,1.92,4.19,4,4.8a4.59,4.59,0,0,0,3.26-.42C407.07,118,408.46,112.62,407,108.44Z" style="fill:#455a64"></path><path d="M410.13,130.94a9.88,9.88,0,0,0-2.53-12.41c1.49-2.49.38-5.87-1.73-7.85s-5-2.9-7.75-3.76c-2.31-6.39-10.31-10-16.64-7.59-4.08-4.56-11.44-4.38-17-1.91a15.61,15.61,0,0,1-4.19,1.52,25.81,25.81,0,0,1-3.29,0c-6,0-11.35,4.94-12.92,10.75a10.71,10.71,0,0,1-.92,2.73,14.64,14.64,0,0,1-2.61,2.73,9.55,9.55,0,0,0-2.7,7.47c.21,2.31,1.27,4.66.58,6.87-.35,1.11-1.11,2.07-1.35,3.21-.67,3.31,3.26,6.07,3,9.44,0,.68-.26,1.35-.36,2a5.91,5.91,0,0,0,.9,4c.6.91,1.47,1.69,1.67,2.76a9.32,9.32,0,0,1-.16,2.46c-.14,2,5.09,9,6.92,9.83L399.66,157a9.51,9.51,0,0,0,6.23-9.1,3.45,3.45,0,0,1,.22-1.92,4.25,4.25,0,0,1,1.26-1.08c3-2.18,2.83-6.7,2-10.33a4.54,4.54,0,0,1-.17-1.55A5.61,5.61,0,0,1,410.13,130.94Z" style="fill:#263238"></path><path d="M395.73,132.93c-1-9-8-18.5-17.48-21.7-6-2-10.34-1.45-13.33-1.4a20.61,20.61,0,0,0-11.59,4.08c-2.7,1-11.67,11.73-10.85,21.94.91,11.35,2.46,25.17,5,33.37,5.11,16.49,18.35,16.78,18.35,16.78s2.54,21.81,2.54,21.81l34.75-12.89Z" style="fill:#ffbf9d"></path><path d="M372.35,163.07a3.62,3.62,0,0,0-1.43-2.1,3.66,3.66,0,0,0-4.46.14,4.91,4.91,0,0,0-1.46,4.76h0a4.44,4.44,0,0,0,3.35,1.56l.6,0a4,4,0,0,0,2.6-1.3A3.57,3.57,0,0,0,372.35,163.07Z" style="fill:#ff9a6c"></path><path d="M348.66,149.24a2.19,2.19,0,0,0,2.4,1.88,2.09,2.09,0,0,0,1.95-2.27,2.18,2.18,0,0,0-2.4-1.88A2.09,2.09,0,0,0,348.66,149.24Z" style="fill:#263238"></path><path d="M347.21,141.78c.31.24,1.77-1.2,4.1-1.53s4.21.59,4.42.27c.1-.15-.24-.62-1.06-1.05a6,6,0,0,0-3.59-.57,5.74,5.74,0,0,0-3.21,1.58C347.23,141.13,347.06,141.67,347.21,141.78Z" style="fill:#263238"></path><path d="M363.48,158.21a16.22,16.22,0,0,0-3.88-.14c-.61,0-1.19,0-1.34-.4a3,3,0,0,1,.14-1.82c.35-1.52.72-3.11,1.11-4.78,1.51-6.8,2.52-12.35,2.24-12.41s-1.72,5.4-3.24,12.2c-.36,1.67-.7,3.27-1,4.79a3.48,3.48,0,0,0,0,2.38,1.52,1.52,0,0,0,1.1.73,4.41,4.41,0,0,0,1,0A15.91,15.91,0,0,0,363.48,158.21Z" style="fill:#263238"></path><path d="M365.83,186a43.34,43.34,0,0,0,21.73-9.28s-4,13.43-21.15,14.28Z" style="fill:#ff9a6c"></path><path d="M370.56,158.84c-.38,0,0,2.56-1.93,4.66s-4.63,2.22-4.6,2.57c0,.17.67.41,1.81.27a6.31,6.31,0,0,0,3.86-2,5.52,5.52,0,0,0,1.46-3.89C371.1,159.38,370.73,158.8,370.56,158.84Z" style="fill:#263238"></path><path d="M346.9,132.92c.47.51,2.2-.12,4.31-.25s3.91.17,4.29-.4c.17-.28-.14-.8-.94-1.27a6.69,6.69,0,0,0-6.93.52C346.91,132.11,346.69,132.67,346.9,132.92Z" style="fill:#263238"></path><path d="M373.63,146.4a2.19,2.19,0,0,1-1.86,2.42,2.09,2.09,0,0,1-2.45-1.72,2.19,2.19,0,0,1,1.86-2.42A2.09,2.09,0,0,1,373.63,146.4Z" style="fill:#263238"></path><path d="M379.2,138.12c-.24.31-2-.74-4.35-.48s-3.93,1.6-4.22,1.34c-.14-.11.09-.65.77-1.28a6,6,0,0,1,3.34-1.42,5.75,5.75,0,0,1,3.5.73C379,137.49,379.32,138,379.2,138.12Z" style="fill:#263238"></path><path d="M378.74,130.21c-.41.58-2.27.22-4.44.43s-4,.78-4.45.27c-.22-.25,0-.82.76-1.4a6.72,6.72,0,0,1,3.52-1.26,6.65,6.65,0,0,1,3.65.7C378.6,129.41,378.91,129.93,378.74,130.21Z" style="fill:#263238"></path><path d="M395.24,149.31c-.18-1.25.85-4.43,2.06-4.8,3.24-1,9.25-1.58,10.52,6.83,1.73,11.49-10.17,10.85-10.24,10.53S395.85,153.65,395.24,149.31Z" style="fill:#ffbf9d"></path><path d="M400.12,157.19s.22.11.58.22a2,2,0,0,0,1.5-.2c1.15-.63,1.88-2.71,1.63-4.79a6.78,6.78,0,0,0-1-2.78,2.35,2.35,0,0,0-1.74-1.31,1,1,0,0,0-1.1.73c-.11.34,0,.56-.06.59s-.27-.16-.25-.65a1.24,1.24,0,0,1,.34-.78,1.48,1.48,0,0,1,1.07-.46,2.82,2.82,0,0,1,2.35,1.46,6.75,6.75,0,0,1,1.18,3.1c.28,2.33-.58,4.68-2.17,5.41a2.18,2.18,0,0,1-1.88,0C400.18,157.47,400.08,157.22,400.12,157.19Z" style="fill:#ff9a6c"></path><path d="M339.88,136.39c2.11-1.79,3.31-4,2.78-6.69,1.6.23,2.88-2,3.59-3.44s1.72-2.29,1.42-3.89a1.8,1.8,0,0,1,0-1c.17-.47.7-.69,1.15-.91a7.81,7.81,0,0,0,4.31-6.08,16.57,16.57,0,0,0,8.07.17,6.29,6.29,0,0,0,10.48-2,5.68,5.68,0,0,0,4.13,2.23,16.6,16.6,0,0,0,4.81-.43,6.66,6.66,0,0,0,5.42,6.85,1.65,1.65,0,0,1,1.16.49,1.67,1.67,0,0,1,0,1.3,5.25,5.25,0,0,0,4.43,6.12,3.91,3.91,0,0,0,1.21,6c.46.19,1.05.41,1.05.91a1.08,1.08,0,0,1-.18.52,7.68,7.68,0,0,0-1.27,4.07c.1,1.43,1.29,2.89,2.72,2.75a3.7,3.7,0,0,0-1.1,2.73c.12,1,1.28,1.87,2.16,1.38.38-.21,5.94-2.16,6.15-2.53,2.62-4.89-2.17-9.19-3.28-14.62a35.92,35.92,0,0,0-7.19-14.83,26.66,26.66,0,0,0-4.88-5,34.83,34.83,0,0,0-7-3.75c-3.17-1.4-6.42-2.78-9.86-3.08-6.42-.58-12.55,2.6-18,6.1a27.54,27.54,0,0,0-5.72,4.58,24.6,24.6,0,0,0-4.28,7.63,30.79,30.79,0,0,0-2.48,12.37" style="fill:#263238"></path><path d="M337,132.68a4.47,4.47,0,0,1,.45-1.32c.19-.42.47-.91.71-1.53a5.31,5.31,0,0,0,.34-2.24,17.26,17.26,0,0,0-.45-2.84,13.13,13.13,0,0,1-.4-3.43,9.74,9.74,0,0,1,1-3.84,9.87,9.87,0,0,1,1.19-1.83A15.4,15.4,0,0,1,341.5,114a7,7,0,0,0,1.54-1.75,9.45,9.45,0,0,0,.78-2.32,15.31,15.31,0,0,1,2.17-4.85,15.15,15.15,0,0,1,4-4.06,13.52,13.52,0,0,1,2.62-1.43,12.94,12.94,0,0,1,3-.78c.51-.07,1-.07,1.56-.09s1.05,0,1.58.06a7.51,7.51,0,0,0,3.07-.43c1-.35,2-.87,3-1.28a19.72,19.72,0,0,1,3.18-1,20.79,20.79,0,0,1,3.36-.51,18.37,18.37,0,0,1,3.47.15,11.45,11.45,0,0,1,6.33,3l.51.51-.19,0a13.47,13.47,0,0,1,16.85,7.69l-.1-.1a36.46,36.46,0,0,1,4.33,1.56,12,12,0,0,1,3.71,2.48,7.9,7.9,0,0,1,2.06,3.76,5.44,5.44,0,0,1-.55,4l0-.19a9.63,9.63,0,0,1,3.49,5.54,9.88,9.88,0,0,1-.39,5.88,8.48,8.48,0,0,1-.6,1.25c-.23.39-.47.76-.65,1.14a2.48,2.48,0,0,0-.25,1.19,8.21,8.21,0,0,0,.2,1.19A19,19,0,0,1,410,139a9.35,9.35,0,0,1-.67,3.49,5.71,5.71,0,0,1-1.52,2.12c-.54.47-1.05.7-1.31.95a3,3,0,0,0-.37.41,1.31,1.31,0,0,1,.34-.44c.26-.27.76-.51,1.28-1a5.72,5.72,0,0,0,1.46-2.1,9.27,9.27,0,0,0,.62-3.44,18.86,18.86,0,0,0-.53-4.34,7.76,7.76,0,0,1-.21-1.22,2.74,2.74,0,0,1,.26-1.29A13.37,13.37,0,0,1,410,131a9.31,9.31,0,0,0,.93-7,9.35,9.35,0,0,0-3.4-5.37l-.11-.07.07-.12a5.16,5.16,0,0,0,.5-3.83,7.6,7.6,0,0,0-2-3.6,11.88,11.88,0,0,0-3.62-2.41,36.39,36.39,0,0,0-4.3-1.53l-.08,0,0-.08a13.15,13.15,0,0,0-16.42-7.47l-.1,0-.09-.09-.49-.49a11.08,11.08,0,0,0-6.15-2.91,16.71,16.71,0,0,0-3.39-.14,19,19,0,0,0-3.3.5,19.38,19.38,0,0,0-3.13,1c-1,.41-2,.93-3,1.28a7.72,7.72,0,0,1-1.59.4,9.66,9.66,0,0,1-1.61.05c-.53,0-1.05-.06-1.56-.07a12.79,12.79,0,0,0-1.52.1,11.77,11.77,0,0,0-2.9.74,13.81,13.81,0,0,0-2.57,1.39,15.41,15.41,0,0,0-6.05,8.72,9.31,9.31,0,0,1-.82,2.38,7.19,7.19,0,0,1-1.59,1.82,13.34,13.34,0,0,0-1.61,1.57,9.41,9.41,0,0,0-1.17,1.78,9.68,9.68,0,0,0-1,3.75,12.56,12.56,0,0,0,.36,3.39,16.94,16.94,0,0,1,.43,2.87,5.48,5.48,0,0,1-.38,2.28c-.26.62-.55,1.11-.75,1.52a6.94,6.94,0,0,0-.4,1A1.89,1.89,0,0,1,337,132.68Z" style="fill:#455a64"></path><path d="M375.72,97.57s-.33-.14-.93-.33a7.79,7.79,0,0,0-2.61-.38,7.37,7.37,0,0,0-3.7,1.08,7.57,7.57,0,0,0-3,3.61,6.49,6.49,0,0,0-.39,1.38,1.46,1.46,0,0,0,.26,1.2l.33.35-.48-.06a4.8,4.8,0,0,0-3.5.92,4.68,4.68,0,0,0-1.65,2.41,5,5,0,0,0-.18,2,6,6,0,0,1,.09.71s0,0-.07-.17a2.43,2.43,0,0,1-.14-.53,4.86,4.86,0,0,1,1.77-4.61,5,5,0,0,1,3.73-1l-.15.29a1.79,1.79,0,0,1-.35-1.49,6.36,6.36,0,0,1,.41-1.46,7.71,7.71,0,0,1,3.16-3.75,7.49,7.49,0,0,1,6.53-.56,5.42,5.42,0,0,1,.66.31C375.65,97.51,375.72,97.55,375.72,97.57Z" style="fill:#455a64"></path><path d="M396.25,108.15s-.1.18-.34.47a7.85,7.85,0,0,1-1.18,1.08,5.44,5.44,0,0,1-2.19,1,4.16,4.16,0,0,1-3-.47l.25-.07-.27.52-.33.51a7,7,0,0,1-2.63,2.19,7.16,7.16,0,0,1-2.69.73A6.06,6.06,0,0,1,382,114a2.5,2.5,0,0,1-.65-.23,10.3,10.3,0,0,0,2.5.15,7.32,7.32,0,0,0,2.57-.78,6.84,6.84,0,0,0,2.48-2.11,4.9,4.9,0,0,0,.31-.48l.26-.49.09-.17.16.1a3.91,3.91,0,0,0,2.74.45,5.5,5.5,0,0,0,2.12-.9C395.69,108.76,396.21,108.1,396.25,108.15Z" style="fill:#455a64"></path><path d="M403.84,118a.65.65,0,0,1,0,.22,1.88,1.88,0,0,1-.18.59,3.12,3.12,0,0,1-1.68,1.5,5.89,5.89,0,0,1-3.33.1,16.62,16.62,0,0,1-1.92-.46,3.17,3.17,0,0,1-1.8-1.22l-.09-.18.28,0a13.49,13.49,0,0,1-3.13,2.53,6,6,0,0,1-3.18.79,4.33,4.33,0,0,1-2.12-.63,2.89,2.89,0,0,1-.48-.37c-.09-.09-.14-.15-.13-.16s.23.18.68.41a4.45,4.45,0,0,0,2.06.5,5.89,5.89,0,0,0,3-.82,13.72,13.72,0,0,0,3-2.5l.16-.17.12.22.08.14a2.89,2.89,0,0,0,1.61,1.09c.62.2,1.27.33,1.87.47a5.86,5.86,0,0,0,3.18,0,3.09,3.09,0,0,0,1.65-1.33A4.61,4.61,0,0,0,403.84,118Z" style="fill:#455a64"></path><path d="M410.37,75.13s-.2,0-.53.17a2.73,2.73,0,0,0-1.17,1,3.71,3.71,0,0,0-.56,2.33,10.93,10.93,0,0,0,.88,3.07l.07.18-.19,0a6.65,6.65,0,0,0-3.81,1.78A5.15,5.15,0,0,0,403.44,88a4.8,4.8,0,0,0,2.22,3.6l.43.25-.49.06a6,6,0,0,0-4.1,2.53,5.79,5.79,0,0,0-1,3.74,6.17,6.17,0,0,0,.75,2.49c.29.54.52.8.49.81s-.06-.05-.17-.17a3.52,3.52,0,0,1-.42-.58,5.93,5.93,0,0,1-.86-2.53,5.86,5.86,0,0,1,.94-3.92,6.27,6.27,0,0,1,4.29-2.7l-.06.31a5.07,5.07,0,0,1-2.39-3.85,5.25,5.25,0,0,1,.33-2.58,6,6,0,0,1,1.39-2,6.87,6.87,0,0,1,4-1.83l-.13.2a10.65,10.65,0,0,1-.83-3.17,3.77,3.77,0,0,1,.65-2.43,2.6,2.6,0,0,1,1.28-1,1.81,1.81,0,0,1,.41-.09Z" style="fill:#455a64"></path><path d="M434.43,97.17a1.56,1.56,0,0,1-.17.14c-.13.07-.3.21-.54.34a8.23,8.23,0,0,1-2.25.85,9,9,0,0,1-3.67.08,8.71,8.71,0,0,1-4.24-2l.26-.06a7.39,7.39,0,0,1-4.68,4.28A5.58,5.58,0,0,1,413,98.57l.29,0a4.61,4.61,0,0,1-1.11,2.15,6.13,6.13,0,0,1-1.73,1.33,8.66,8.66,0,0,1-3.45.87,17.6,17.6,0,0,1-2.32-.05,7.15,7.15,0,0,1-.82-.1,4.44,4.44,0,0,1,.83,0c.53,0,1.31,0,2.29,0a8.57,8.57,0,0,0,3.34-.91,5,5,0,0,0,2.65-3.3l.09-.41.21.35a5.3,5.3,0,0,0,5.8,2.07,7.12,7.12,0,0,0,4.47-4.07l.08-.2.17.14a8.69,8.69,0,0,0,4.08,2,9.32,9.32,0,0,0,3.58,0A10.72,10.72,0,0,0,434.43,97.17Z" style="fill:#455a64"></path><path d="M424.74,115.71a.56.56,0,0,1-.11.23,1.23,1.23,0,0,1-.61.38,5.26,5.26,0,0,1-2.6-.07,6.27,6.27,0,0,1-3.28-2,6.47,6.47,0,0,1-1.49-4.45v0l.28.15a7.54,7.54,0,0,1-4.53,1.29,8.5,8.5,0,0,1-3.71-1,9.17,9.17,0,0,1-2.09-1.53,3,3,0,0,1-.62-.71,13.78,13.78,0,0,0,2.83,2,8.44,8.44,0,0,0,3.6.91,7.42,7.42,0,0,0,4.32-1.25l.28-.2v.39a6.11,6.11,0,0,0,4.48,6.23,5.64,5.64,0,0,0,2.5.17A1.29,1.29,0,0,0,424.74,115.71Z" style="fill:#455a64"></path><path d="M385.27,79.1a10.09,10.09,0,0,0,0,3.61,7.84,7.84,0,0,0,5.57,6.07,7.84,7.84,0,0,0,2.73.31h.21l0,.21a10.16,10.16,0,0,0,1.17,6.6,7.65,7.65,0,0,0,.62,1,.86.86,0,0,0,.67.39.57.57,0,0,0,.44-.21,1.11,1.11,0,0,0,.09-.16s0,.07,0,.19a.62.62,0,0,1-.49.29,1,1,0,0,1-.81-.38,7.4,7.4,0,0,1-.68-1,10.08,10.08,0,0,1-1.32-6.76l.18.19a8,8,0,0,1-2.85-.31,8.28,8.28,0,0,1-4.08-2.7A8.17,8.17,0,0,1,385,80.05a6.44,6.44,0,0,1,.18-.71A.91.91,0,0,1,385.27,79.1Z" style="fill:#455a64"></path><path d="M352.33,434.18l38.16-6.91s19.85,36.47,27,35.88l-10.75-74.49L346.86,397Z" style="fill:#455a64"></path><path d="M383.94,404.7a3.07,3.07,0,0,1,3.17-2.6,2.94,2.94,0,0,1,2.61,3.11c-.16,1.51-1.89,3-3.37,2.74s-2.87-2.12-2.35-3.54" style="fill:#e0e0e0"></path><path d="M408.28,388.71l-5.8.8,10.78,71.57s1.93,3.11,4.21,2.4Z" style="fill:#e0e0e0"></path><path d="M390.29,428.53c.36-.07.26-1.91,1.17-3.87s2.31-3.13,2.12-3.44-2.22.53-3.28,2.92S390,428.66,390.29,428.53Z" style="fill:#263238"></path><path d="M394.65,435.88c.36,0,.75-1.64,2.11-3.09s2.94-2.05,2.87-2.41-2.16-.3-3.81,1.55S394.3,435.92,394.65,435.88Z" style="fill:#263238"></path><path d="M404.64,439c0-.34-1.86-.58-3.72.64s-2.4,3-2.08,3.15,1.24-1.1,2.78-2.08S404.65,439.33,404.64,439Z" style="fill:#263238"></path><path d="M384.79,429.91c.28-.24-.69-1.71-1.16-3.74s-.31-3.77-.66-3.86-1.16,1.78-.58,4.16S384.57,430.17,384.79,429.91Z" style="fill:#263238"></path><path d="M352.33,341.39c-1.42-.39-55.38,51.66-65.65,64.44-10.48,13,.34,30,8.11,30.14,16,.36,91.72-4.56,91.72-4.56l-7.91-35,30.23-10.18-27-49.44Z" style="fill:#263238"></path><g style="opacity:0.30000000000000004"><path d="M337.62,356.17l-2,2.14s35.63,37.37,46.56,36.86l17.49-5.93L340.5,352.93Z"></path></g><path d="M378.81,397.29c.06.22-12.91,4.22-29,8.94s-29.13,8.37-29.2,8.15,12.9-4.22,29-8.94S378.74,397.07,378.81,397.29Z" style="fill:#263238"></path><path d="M301.18,401.14l12.09,38.33s-34.9,25.15-33.36,32.45l75.15-20.76-16.37-60.49Z" style="fill:#455a64"></path><path d="M335.6,429.79a3.18,3.18,0,0,1,3.09,2.92,3.07,3.07,0,0,1-2.86,3.09c-1.56,0-3.36-1.55-3.26-3.11s1.81-3.23,3.34-2.88" style="fill:#e0e0e0"></path><path d="M355.55,452.73,354,446.87l-72.15,20.42s-2.94,2.38-1.91,4.63Z" style="fill:#e0e0e0"></path><path d="M311.94,439.42c.12.36,2,0,4.13.7s3.52,2,3.81,1.72-.83-2.2-3.43-3S311.77,439.11,311.94,439.42Z" style="fill:#263238"></path><path d="M305,444.86c0,.38,1.78.56,3.45,1.77s2.49,2.75,2.85,2.63,0-2.25-2.09-3.72S304.87,444.51,305,444.86Z" style="fill:#263238"></path><path d="M303.09,455.53c.35,0,.36-2-1.14-3.74s-3.43-2.08-3.51-1.73,1.29,1.13,2.5,2.59S302.71,455.59,303.09,455.53Z" style="fill:#263238"></path><path d="M310.16,430.38c.24.29,1.79-.68,3.9-1.11s3.91-.23,4-.59-1.82-1.25-4.3-.71S309.9,430.14,310.16,430.38Z" style="fill:#263238"></path><g style="opacity:0.30000000000000004"><polygon points="354.43 433.8 350.98 420.21 354.42 418.61 333.4 361.38 329.39 364.87 345.91 417.29 350.09 432.78 354.43 433.8"></polygon></g><path d="M306,296.71a29.51,29.51,0,0,0-23.66,5.07c-5.64,4.24-10.35,11-8.83,21.71,3.39,23.73,33.72,104.74,33.72,104.74l42-12.62c.24-.07.48-.76.35-.55-.35.55-21.29-66.93-20.76-66.14s42.34,34.56,59.71,40.76c17.84,6.38,35.49-1.25,44-13.13,4.07-5.69,13.45-35.76-5.14-60.58l-34.74,6.54s-82.27-24.56-83.49-25A26.33,26.33,0,0,0,306,296.71Z" style="fill:#263238"></path><path d="M434.12,375.72s-.16.28-.51.8a23.1,23.1,0,0,1-1.7,2.22,37.78,37.78,0,0,1-8.27,6.92,42,42,0,0,1-16.06,6.12,37,37,0,0,1-10.86.15A36,36,0,0,1,385,388.41c-2-.85-3.88-2-5.9-3s-4-2.27-6-3.54c-4-2.49-8.16-5.19-12.36-8.13-8.42-5.84-17.26-12.43-26.41-19.71l-3.43-2.78-1.72-1.44-.45-.41-.23-.22c.15,0-.4-.18.31.1.55-.58.15-.29.28-.35l0,.12.3,1.06,2.7,8.72q2.78,8.82,5.71,18.06c3.92,12.31,8,25.16,12.26,38.45l.12.39-.38.12-42.51,12.79-.37.11-.13-.36c-2.71-7.27-5.53-15-8.34-22.85-6.09-17-11.87-33.76-17-50.06-2.56-8.14-4.94-16.19-6.84-24.2-.23-1-.5-2-.7-3s-.37-2-.55-3a28.17,28.17,0,0,1-.59-6.08,21.25,21.25,0,0,1,3.37-11.47c4.44-6.71,11.9-10.65,19.3-11.67a30.48,30.48,0,0,1,11,.47l2.66.67,2.55.76,5.06,1.51L354,310.53l53.81,16.12,14.62,4.43,3.79,1.17c.86.27,1.29.42,1.29.42s-.45-.1-1.31-.34l-3.82-1.09L407.7,327l-53.9-15.88-37.22-11-5.06-1.49-2.56-.76-2.57-.64a29.68,29.68,0,0,0-10.77-.44c-7.22,1-14.5,4.88-18.77,11.36a20.49,20.49,0,0,0-3.23,11.07,27.34,27.34,0,0,0,.58,5.95c.19,1,.37,2,.55,3s.47,2,.7,3c1.9,8,4.28,16,6.85,24.13,5.1,16.28,10.9,33,17,50,2.81,7.84,5.63,15.58,8.33,22.84l-.51-.25,42.52-12.77-.27.51c-4.22-13.3-8.31-26.16-12.22-38.47L331.45,359c-.91-2.94-1.8-5.85-2.69-8.73l-.3-1.09,0-.16c.12-.1-.3.13.27-.47.74.31.23.11.41.19l.19.16.37.34,1.7,1.43,3.42,2.78c9.12,7.29,17.93,13.9,26.33,19.76,4.18,2.94,8.3,5.65,12.3,8.15,2,1.27,4,2.39,5.94,3.55s3.89,2.17,5.86,3a35.31,35.31,0,0,0,11.57,3.53,36.64,36.64,0,0,0,10.74-.09,42.06,42.06,0,0,0,16-6,39.15,39.15,0,0,0,8.31-6.78,26.56,26.56,0,0,0,1.74-2.17C433.92,376,434.12,375.72,434.12,375.72Z" style="fill:#455a64"></path><path d="M309.59,330.34a14.93,14.93,0,0,1,3.49,1.89,51.14,51.14,0,0,1,7.52,5.93,45.48,45.48,0,0,1,6.23,7.29,14.17,14.17,0,0,1,1.94,3.47,28.58,28.58,0,0,1-2.41-3.13,61.06,61.06,0,0,0-6.33-7,72.62,72.62,0,0,0-7.28-6.05A26.41,26.41,0,0,1,309.59,330.34Z" style="fill:#263238"></path><path d="M323.92,325.66a13,13,0,0,1,1.52,3.16,54.75,54.75,0,0,1,2.46,8.09,53.5,53.5,0,0,1,1.2,8.36,12.78,12.78,0,0,1,0,3.51c-.26,0-.53-5.31-2-11.69S323.68,325.76,323.92,325.66Z" style="fill:#263238"></path><path d="M292.27,278.66a7.92,7.92,0,0,0-5-2.56l-21.7-3.64-23-10.85-8.86,9.7,21.78,9.86a6.89,6.89,0,0,1,3.39,6.26c0,4.7.41,11.83,3.19,14.7,7.57,7.84,16.79,9.71,21,8.51s14.55-8.11,14.27-15.64C297.18,289,295.79,282.51,292.27,278.66Zm-3,18.11a13.09,13.09,0,0,1-5.94,4.86c-3.63,1.65-7.72,2.28-11.42.85a12.38,12.38,0,0,1-7.53-9.79,9.71,9.71,0,0,1,.48-4.74h0c.3-2,1.66-4.18,3.24-4.77a12.72,12.72,0,0,1,5.16-.8,72,72,0,0,1,9.89,1.41c2.72.63,5.68,1.8,7,4.74A9.26,9.26,0,0,1,289.22,296.77Z" style="fill:#14B017"></path><path d="M303.49,217.12s-7.91-9.59-11.7-11.35S271.65,204,271.65,204s-2.64,3.08,1.14,4.84,9.59,1.14,11.79,2.73,1.41,8.26,6.86,11.43a13.68,13.68,0,0,0,10.47,1.5Z" style="fill:#ffbf9d"></path><path d="M244.2,240.66c-1.69,0-87.09,28.11-87.09,28.11l2.7,3.05c5.59,6.31,13.4,8.91,20.88,6.93l55.58-14.38,5.53-7.22-.29-2.9,9.63-4.51Z" style="fill:#e0e0e0"></path><path d="M244.2,240.66s.16.18.47.57L246,243c1.2,1.56,2.95,3.82,5.21,6.72l.09.12-.14.06-9.62,4.55.09-.16c.1.88.2,1.87.31,2.89v.07l0,.05-5.51,7.24,0,.05-.06,0-31.12,8.1L187,277.38l-4.76,1.23a26.18,26.18,0,0,1-4.94,1,19.7,19.7,0,0,1-10-1.82,22.12,22.12,0,0,1-5.79-3.89c-1.7-1.57-3.1-3.32-4.56-4.93l-.27-.3.38-.12c24.57-8.07,46.32-15.14,62-20.15,7.82-2.5,14.1-4.48,18.44-5.81,2.17-.67,3.86-1.16,5-1.49.56-.17,1-.26,1.32-.33l.44-.08-.45.13c-.29.09-.72.19-1.29.38l-5,1.57-18.39,6L157.19,269l.11-.42c1.47,1.62,2.88,3.38,4.53,4.9a21.53,21.53,0,0,0,5.66,3.8,19.33,19.33,0,0,0,9.78,1.78,27.91,27.91,0,0,0,4.85-.95l4.76-1.23,18.19-4.7,31.15-8-.1.07,5.55-7.21,0,.11c-.1-1-.19-2-.28-2.89v-.11l.1,0,9.65-4.47,0,.18L246,243.06l-1.32-1.78Z" style="fill:#263238"></path><path d="M370.68,199.89s-13.77-3.2-19,2.35-22.44,49.14-22.44,49.14l-25.74-34.26L293,233.81s17.15,36.4,24.38,44.91A23.72,23.72,0,0,0,342,286.29c5.08-1.5,11.77-14.5,11.77-14.5Z" style="fill:#ffbf9d"></path><path d="M286.05,209.78c-4.09-1.66-13.41-.84-21.56,6.12-3,2.54-4.24,9.3-4.57,14a6,6,0,0,1-3.78,5.47l-23,8.77,10.93,8.93,21.57-8.41h21.89a7.65,7.65,0,0,0,5.15-2c3.8-3.44,5.69-9.73,6.37-15.69C299.91,219.5,290.14,211.44,286.05,209.78Zm5.21,22.79c-1.52,2.77-4.56,3.61-7.31,3.93a70.59,70.59,0,0,1-10,.29,12.79,12.79,0,0,1-5.07-1.37c-1.53-.77-2.71-3.13-2.85-5.11h0a9.74,9.74,0,0,1-.11-4.77,11.81,11.81,0,0,1,8.25-8.9c3.8-1,7.82.08,11.31,2.13a13.7,13.7,0,0,1,5.53,5.51A9.31,9.31,0,0,1,291.26,232.57Z" style="fill:#14B017"></path><path d="M428.44,300.07l-2.23-16.25,5.86-55c4.28-32.82-29.22-38.89-29.22-38.89-1.08,1.72-32.6,20.13-36.54,3.3h0c-1.9.61-14.52,4.78-19.65,9.53-5.57,5.14-19.42,41.05-19.42,41.05l10.63,13.51c3.95,14.74,13.34,38.46,13.34,38.46l-8.36,7.92c38.24,30.25,70.26,20,82.64,14a10.92,10.92,0,0,0,3.52-17A8.07,8.07,0,0,0,428.44,300.07Z" style="fill:#e0e0e0"></path><path d="M428.44,300.07a10,10,0,0,1,1.33,1.52,10.45,10.45,0,0,1,1.94,5.49,10.81,10.81,0,0,1-.56,4.27,10.93,10.93,0,0,1-2.75,4.36,8.78,8.78,0,0,1-1.09.93l-.6.44-.65.37c-.88.52-1.84.89-2.8,1.36s-2,.82-3.06,1.26-2.18.76-3.31,1.16a70.17,70.17,0,0,1-34.21,2,86.64,86.64,0,0,1-20.1-6.78l-5.05-2.62a28.5,28.5,0,0,1-2.49-1.47l-2.49-1.55L350,309.22c-.82-.55-1.61-1.16-2.43-1.75l-4.91-3.6-.21-.16.2-.18L351,295.6l-.05.26c-2.33-5.93-4.66-12.12-6.94-18.53s-4.53-13.06-6.42-20l0,.09L327,244l-.09-.11.05-.14c3.32-8.46,6.94-17.3,11-26.14,1.42-3,2.86-6,4.44-9a49,49,0,0,1,2.6-4.26,6.44,6.44,0,0,1,.77-1,10.64,10.64,0,0,1,.85-.93l1-.8,1-.72a51.44,51.44,0,0,1,8.65-4.55q4.44-1.9,9-3.38l.26-.08.07.27a9,9,0,0,0,2.56,4.61,9.17,9.17,0,0,0,4.79,2.07,25.68,25.68,0,0,0,10.45-1.19,63.09,63.09,0,0,0,9.68-3.77c1.54-.75,3-1.53,4.52-2.36.73-.42,1.46-.85,2.16-1.3a11.12,11.12,0,0,0,1.93-1.43l.13-.14.11,0A44.94,44.94,0,0,1,419.32,197,31.81,31.81,0,0,1,430,210a32.74,32.74,0,0,1,2.22,7.78,40.83,40.83,0,0,1,.31,7.78c-.44,5.08-1,9.89-1.51,14.52-2,18.46-3.62,33.4-4.75,43.77v0c.7,5.22,1.24,9.28,1.6,12,.18,1.38.32,2.43.41,3.15s.12,1.07.12,1.07-.06-.35-.17-1.05-.25-1.76-.45-3.12c-.39-2.77-1-6.83-1.71-12.06v0h0c1.09-10.37,2.65-25.32,4.58-43.79.47-4.62,1.05-9.47,1.48-14.5a40,40,0,0,0-.32-7.7,31.75,31.75,0,0,0-2.21-7.67,31.43,31.43,0,0,0-10.59-12.82,44.59,44.59,0,0,0-16.24-7.18l.24-.11a5,5,0,0,1-1,.88c-.35.24-.7.48-1.06.71-.71.46-1.44.88-2.18,1.31q-2.22,1.26-4.55,2.38a64.68,64.68,0,0,1-9.75,3.81,26,26,0,0,1-10.67,1.21,9.62,9.62,0,0,1-5.05-2.19,9.48,9.48,0,0,1-2.72-4.87l.33.18c-3,1-6,2.1-8.94,3.36a51.31,51.31,0,0,0-8.55,4.5c-2.84,1.69-4.38,4.67-6,7.53s-3,5.91-4.43,8.94c-4,8.82-7.66,17.66-11,26.11l0-.25,10.63,13.5,0,0v.05c1.88,6.88,4.13,13.51,6.4,19.92s4.59,12.6,6.91,18.52l.05.15-.11.11L343,303.86v-.35l4.88,3.59c.81.59,1.6,1.2,2.42,1.75l2.5,1.57,2.47,1.54c.83.5,1.62,1.06,2.48,1.47l5,2.62a86.84,86.84,0,0,0,20,6.79A70,70,0,0,0,416.81,321c1.13-.39,2.23-.75,3.3-1.14s2.07-.82,3.05-1.24,1.93-.83,2.79-1.33l.64-.36.59-.43a7.79,7.79,0,0,0,1.07-.91,10.77,10.77,0,0,0,2.74-4.27,11.05,11.05,0,0,0,.58-4.2,10.56,10.56,0,0,0-1.86-5.46c-.41-.52-.68-.94-.93-1.18Z" style="fill:#263238"></path><path d="M353.15,209.16a18.07,18.07,0,0,1-1,1.85c-.69,1.18-1.61,2.93-2.62,5.15s-2.09,4.93-3.2,8-2.26,6.4-3.59,9.89-2.53,6.83-3.38,9.94a41.1,41.1,0,0,0-1.5,8.4,23,23,0,0,0,.32,5.74c.26,1.33.49,2.06.44,2.07a1.74,1.74,0,0,1-.2-.51,11.25,11.25,0,0,1-.44-1.52,21.23,21.23,0,0,1-.48-5.79,38.61,38.61,0,0,1,1.4-8.51,102.28,102.28,0,0,1,3.36-10l3.62-9.88c1.14-3,2.25-5.73,3.32-7.94a49,49,0,0,1,2.77-5.1c.36-.59.68-1,.88-1.31A2.49,2.49,0,0,1,353.15,209.16Z" style="fill:#263238"></path><path d="M313.16,284.83s-13-6.59-16.25-8.89a17.1,17.1,0,0,0-7.93-2.77c-.58,0-9.18-.67-10.9,2.11l9.18,4.58s-5.26,1.82-6.22,1.53-9.65-3.06-11.08-1.81-2.49,2.77-1,4.49,6.11,2.58,6.11,2.58.48,5.26,4,6.88a3.23,3.23,0,0,0,1.14,4.21s4.5,5.45,6.79,6.78,1.43.67,6.69,0,10-4.2,13.38-3.91S313.16,284.83,313.16,284.83Z" style="fill:#ffbf9d"></path><path d="M268.53,220.31h0s-.22,5,1.81,5.83,3.41-.45,4.68-2.77c0,0,.64,3.21,5,2.81,0,0,1.69,4.49,4.25,2.95,0,0,1.28,6.22,5.42.86s4.64-11.23,3.86-12.07-1.13-.81-1.13-.81,2.18-3.75.6-5.55-4.23,1.09-4.23,1.09.9-2.7-.62-3.6-3.32-.12-4.79,1.75c-2,2.53-3.16,4.12-3.16,4.12s1.58-3.59-.84-4.09C276.53,210.24,268.53,220.31,268.53,220.31Z" style="fill:#ffbf9d"></path><path d="M268.53,220.31a1.34,1.34,0,0,1,.2-.3l.63-.81c.57-.71,1.41-1.73,2.55-3a36.57,36.57,0,0,1,4.46-4.27,9.43,9.43,0,0,1,1.6-1,3.3,3.3,0,0,1,1-.3,1.79,1.79,0,0,1,1.06.24,2,2,0,0,1,.92,1.95,6.66,6.66,0,0,1-.51,2.18l-.37-.21c.66-.87,1.35-1.76,2.05-2.69a14.16,14.16,0,0,1,2.39-2.75,4.19,4.19,0,0,1,1.76-.85,2.86,2.86,0,0,1,2,.32,2,2,0,0,1,.75.8,2.81,2.81,0,0,1,.27,1,5.81,5.81,0,0,1-.26,2.07l-.43-.25a6.4,6.4,0,0,1,2.21-1.57,2.32,2.32,0,0,1,1.46-.12,2.11,2.11,0,0,1,1.18.93,3.86,3.86,0,0,1,.24,2.86,10.67,10.67,0,0,1-1.05,2.67l-.25-.39a1.12,1.12,0,0,1,.64.24,3.19,3.19,0,0,1,.44.37l.27.27a1.26,1.26,0,0,1,.22.41,3.69,3.69,0,0,1,.14.77,8.05,8.05,0,0,1-.05,1.48,16.71,16.71,0,0,1-.58,2.83,21.32,21.32,0,0,1-2.3,5.06,19.3,19.3,0,0,1-1.57,2.19,5.9,5.9,0,0,1-2.05,1.72,2.1,2.1,0,0,1-1.4.12,2.35,2.35,0,0,1-1.09-.83,5.94,5.94,0,0,1-1-2.31l.34.15a2.22,2.22,0,0,1-1.65.28,2.81,2.81,0,0,1-1.37-.84,8.1,8.1,0,0,1-1.55-2.52l.22.14a5.84,5.84,0,0,1-3.3-.57,3.86,3.86,0,0,1-1.89-2.41l.32.05a8.73,8.73,0,0,1-1.67,2.26,2.81,2.81,0,0,1-2.37.79,2.7,2.7,0,0,1-1.08-.39,2.2,2.2,0,0,1-.74-.78,5.48,5.48,0,0,1-.6-1.71,12.24,12.24,0,0,1-.23-2.46c0-.29,0-.5,0-.64s0-.22,0-.22a8,8,0,0,1,.05.85,14.44,14.44,0,0,0,.32,2.43,5.45,5.45,0,0,0,.61,1.63,2.14,2.14,0,0,0,1.66,1,2.51,2.51,0,0,0,2.12-.75,8.47,8.47,0,0,0,1.57-2.19l.22-.39.11.44a3.51,3.51,0,0,0,1.74,2.14A5.5,5.5,0,0,0,280,226h.15l.06.15a7.46,7.46,0,0,0,1.48,2.35,2.37,2.37,0,0,0,1.15.71,1.8,1.8,0,0,0,1.31-.23l.27-.15.08.3a5.64,5.64,0,0,0,.93,2.11,1.92,1.92,0,0,0,.87.66,1.14,1.14,0,0,0,.52,0,1.31,1.31,0,0,0,.54-.14,5.51,5.51,0,0,0,1.86-1.6,19.46,19.46,0,0,0,1.52-2.13,20.92,20.92,0,0,0,2.23-4.95,15.76,15.76,0,0,0,.57-2.73,8.08,8.08,0,0,0,0-1.39,3.16,3.16,0,0,0-.11-.64,1.24,1.24,0,0,0-.11-.23l-.25-.25c-.12-.11-.25-.22-.37-.31a1.86,1.86,0,0,0-.3-.16l-.25-.39a10.12,10.12,0,0,0,1-2.52A3.46,3.46,0,0,0,293,212a1.57,1.57,0,0,0-.88-.71,1.82,1.82,0,0,0-1.14.11,5.86,5.86,0,0,0-2,1.43l-.72.73.3-1a5.21,5.21,0,0,0,.24-1.87,1.69,1.69,0,0,0-.77-1.45,2.85,2.85,0,0,0-3.24.47,14.28,14.28,0,0,0-2.32,2.65L280.39,215l-1,1.26.61-1.47a6.1,6.1,0,0,0,.49-2,1.6,1.6,0,0,0-.7-1.6,1.75,1.75,0,0,0-1.7,0,9.44,9.44,0,0,0-1.54.94,38.62,38.62,0,0,0-4.49,4.17c-1.16,1.23-2,2.23-2.63,2.91-.28.32-.51.57-.68.78A2.27,2.27,0,0,1,268.53,220.31Z" style="fill:#ff9a6c"></path><path d="M280.22,215.25a22.88,22.88,0,0,1-2.11,4.2,11,11,0,0,1-3,3.65c-.11-.1,1.25-1.68,2.54-3.92S280.08,215.16,280.22,215.25Z" style="fill:#ff9a6c"></path><path d="M288.92,212.13a8,8,0,0,1-.83,2.27,52.31,52.31,0,0,1-2.76,5.12,36.41,36.41,0,0,1-3.16,4.91,3.88,3.88,0,0,1-2,1.4,11.22,11.22,0,0,0,1.7-1.64c.91-1.13,1.81-3,3-4.93s2.2-3.71,2.88-5A17.26,17.26,0,0,1,288.92,212.13Z" style="fill:#ff9a6c"></path><path d="M293,215.68a7.52,7.52,0,0,1-.67,2.19,29,29,0,0,1-6,9.26,8,8,0,0,1-1.72,1.52c-.12-.12,2.4-2.54,4.7-6.15S292.81,215.62,293,215.68Z" style="fill:#ff9a6c"></path><path d="M230.05,256.58a4.66,4.66,0,1,1-4.66-4.65A4.66,4.66,0,0,1,230.05,256.58Z" style="fill:#e0e0e0"></path><path d="M230.05,256.58c-.05,0-.05-.41-.25-1.11a4.58,4.58,0,0,0-1.7-2.44,4.43,4.43,0,1,0,0,7.1,4.58,4.58,0,0,0,1.7-2.44c.2-.7.2-1.11.25-1.11a.78.78,0,0,1,0,.3,3.3,3.3,0,0,1-.08.86,4.63,4.63,0,0,1-1.68,2.69,4.84,4.84,0,0,1-4.6.75,4.89,4.89,0,0,1,0-9.2,4.84,4.84,0,0,1,4.6.75,4.68,4.68,0,0,1,1.68,2.69,3.3,3.3,0,0,1,.08.86A.78.78,0,0,1,230.05,256.58Z" style="fill:#263238"></path><path d="M228.4,258.32a10.4,10.4,0,0,1-5.78-3.83c.1-.1,1.26.93,2.85,2A31.55,31.55,0,0,1,228.4,258.32Z" style="fill:#263238"></path><path d="M227.46,253.67c.1.12-1.05,1.2-2.08,2.82s-1.57,3.09-1.71,3a6.41,6.41,0,0,1,1.27-3.33A6.56,6.56,0,0,1,227.46,253.67Z" style="fill:#263238"></path><path d="M338.37,275.26c-.09,0-.31-1.44-.83-3.74a58.87,58.87,0,0,0-6.72-17.09c-1.2-2-2-3.25-1.95-3.3a4,4,0,0,1,.66.79c.41.52,1,1.31,1.6,2.32a49.22,49.22,0,0,1,6.77,17.2c.22,1.17.36,2.13.42,2.79A4.71,4.71,0,0,1,338.37,275.26Z" style="fill:#ff9a6c"></path><path d="M307.75,282.36l62.93,1.12s19.32-64.89,26-74.16c6.12-8.54,8.88-7.76,18.29-8.4s16.75,11,15.29,22.09-34.35,72.35-39.84,80.42-6.1,8.93-12.86,9.63-73.68-11.91-73.68-11.91Z" style="fill:#ffbf9d"></path><path d="M376.77,249.77,416.86,266s15.69-37.89,15.59-46.85-6.28-19.23-13.56-21.55-17.83.87-22.53,8.81S376.77,249.77,376.77,249.77Z" style="fill:#e0e0e0"></path><path d="M376.77,249.77s.05-.16.17-.47.32-.78.55-1.36l2.16-5.2c1.89-4.5,4.66-11,8.2-19,1.78-4,3.73-8.36,6-13a34.54,34.54,0,0,1,4.07-6.88,19.93,19.93,0,0,1,6.74-5.14,21.06,21.06,0,0,1,4.17-1.48,20.34,20.34,0,0,1,4.48-.63,14.81,14.81,0,0,1,8.95,2.34,17.78,17.78,0,0,1,3.62,3.15,24.83,24.83,0,0,1,2.9,3.92,30.46,30.46,0,0,1,2.18,4.44,27.9,27.9,0,0,1,1.37,4.81,24.45,24.45,0,0,1,.39,3.7c0,.62-.09,1.25-.13,1.86a18,18,0,0,1-.3,1.81c-.45,2.4-1.12,4.71-1.78,7-1.36,4.55-2.87,8.92-4.39,13.13-3.05,8.43-6.14,16.25-9,23.3l-.08.2-.2-.08-29.13-11.91L379.58,251l-2.11-.87-.7-.31.77.28,2.16.85,8.15,3.24c7,2.81,17,6.81,29.09,11.65l-.28.11c2.87-7,5.94-14.87,9-23.3,1.51-4.21,3-8.57,4.37-13.1.66-2.27,1.32-4.57,1.76-6.93.09-.59.25-1.18.3-1.78s.11-1.19.12-1.79a24.57,24.57,0,0,0-.38-3.61,27.24,27.24,0,0,0-1.35-4.73,29.26,29.26,0,0,0-2.14-4.35,23.49,23.49,0,0,0-2.83-3.84,18,18,0,0,0-3.52-3.08,14.42,14.42,0,0,0-8.65-2.27,21.37,21.37,0,0,0-8.46,2.06,19.35,19.35,0,0,0-6.6,5,34.53,34.53,0,0,0-4,6.78c-2.26,4.6-4.24,9-6,12.94-3.58,8-6.39,14.45-8.34,18.93L377.59,248c-.26.57-.46,1-.6,1.34S376.77,249.77,376.77,249.77Z" style="fill:#263238"></path><path d="M377.86,294.43a4.71,4.71,0,0,1-.55-.73l-1.48-2.15-5.32-8,.17.09c-6.54,0-15.22-.05-24.71-.24l-26.72-.55-8.1-.15-2.2-.06a4.69,4.69,0,0,1-.77-.05,3.6,3.6,0,0,1,.77-.05l2.2,0c1.92,0,4.68,0,8.1,0,6.85,0,16.29.2,26.73.4,9.49.19,18.17.33,24.7.37h.11l0,.09,5.18,8.05,1.38,2.21A6.31,6.31,0,0,1,377.86,294.43Z" style="fill:#ff9a6c"></path><path d="M390.43,311.5a9.71,9.71,0,0,1,1.48.05c.47,0,1,.08,1.73.08s1.44.06,2.29,0a49.12,49.12,0,0,0,5.93-.45A46.56,46.56,0,0,0,415.75,307a47.86,47.86,0,0,0,5.19-2.93c.72-.44,1.33-.9,1.89-1.29s1-.73,1.39-1a7.92,7.92,0,0,1,1.2-.86,7.35,7.35,0,0,1-1.07,1c-.36.32-.8.7-1.35,1.11s-1.14.9-1.86,1.36a41.39,41.39,0,0,1-5.17,3,48.39,48.39,0,0,1-6.85,2.73,46.76,46.76,0,0,1-7.19,1.54,41.66,41.66,0,0,1-6,.35c-.86,0-1.63-.06-2.31-.1a16.57,16.57,0,0,1-1.73-.17A6.74,6.74,0,0,1,390.43,311.5Z" style="fill:#263238"></path></g></svg>
