<svg xmlns="http://www.w3.org/2000/svg" viewBox="0 0 500 500"><g id="freepik--background-complete--inject-126"><rect y="382.4" width="500" height="0.25" style="fill:#ebebeb"></rect><rect x="416.78" y="398.49" width="33.12" height="0.25" style="fill:#ebebeb"></rect><rect x="322.53" y="401.21" width="8.69" height="0.25" style="fill:#ebebeb"></rect><rect x="396.59" y="389.21" width="19.19" height="0.25" style="fill:#ebebeb"></rect><rect x="52.46" y="390.89" width="43.19" height="0.25" style="fill:#ebebeb"></rect><rect x="104.56" y="390.89" width="6.33" height="0.25" style="fill:#ebebeb"></rect><rect x="131.47" y="395.11" width="93.68" height="0.25" style="fill:#ebebeb"></rect><path d="M237,337.8H43.91a5.71,5.71,0,0,1-5.7-5.71V60.66A5.71,5.71,0,0,1,43.91,55H237a5.71,5.71,0,0,1,5.71,5.71V332.09A5.71,5.71,0,0,1,237,337.8ZM43.91,55.2a5.46,5.46,0,0,0-5.45,5.46V332.09a5.46,5.46,0,0,0,5.45,5.46H237a5.47,5.47,0,0,0,5.46-5.46V60.66A5.47,5.47,0,0,0,237,55.2Z" style="fill:#ebebeb"></path><path d="M453.31,337.8H260.21a5.72,5.72,0,0,1-5.71-5.71V60.66A5.72,5.72,0,0,1,260.21,55h193.1A5.71,5.71,0,0,1,459,60.66V332.09A5.71,5.71,0,0,1,453.31,337.8ZM260.21,55.2a5.47,5.47,0,0,0-5.46,5.46V332.09a5.47,5.47,0,0,0,5.46,5.46h193.1a5.47,5.47,0,0,0,5.46-5.46V60.66a5.47,5.47,0,0,0-5.46-5.46Z" style="fill:#ebebeb"></path><rect x="330.75" y="257.73" width="89.16" height="124.61" transform="translate(750.66 640.06) rotate(180)" style="fill:#f5f5f5"></rect><rect x="356.82" y="202.69" width="57.32" height="45.53" transform="translate(770.96 450.9) rotate(180)" style="fill:#ebebeb"></rect><rect x="378.44" y="221" width="13.82" height="13.82" transform="translate(770.71 455.81) rotate(180)" style="fill:#fafafa"></rect><rect x="345.27" y="248.21" width="62.85" height="9.51" transform="translate(753.38 505.94) rotate(180)" style="fill:#e6e6e6"></rect><rect x="378.69" y="234.82" width="13.57" height="13.57" transform="translate(770.96 483.21) rotate(180)" style="fill:#e0e0e0"></rect><rect x="361.03" y="192.05" width="6.65" height="27.71" transform="translate(728.71 411.82) rotate(180)" style="fill:#f5f5f5"></rect><polygon points="340.27 198.51 387.7 198.09 387.7 180.41 340.27 180.82 340.27 198.51" style="fill:#f5f5f5"></polygon><polygon points="343.14 195.17 384.46 195.17 384.46 182.37 343.14 182.81 343.14 195.17" style="fill:#e0e0e0"></polygon><rect x="178.51" y="357.61" width="36.25" height="16.24" transform="translate(393.27 731.45) rotate(180)" style="fill:#fafafa"></rect><rect x="180.31" y="359.88" width="33.02" height="8.12" transform="translate(393.65 727.88) rotate(180)" style="fill:#e6e6e6"></rect><rect x="148.56" y="357.61" width="36.25" height="16.24" style="fill:#fafafa"></rect><rect x="150.36" y="359.88" width="33.02" height="8.12" style="fill:#e6e6e6"></rect><rect x="118.61" y="357.61" width="36.25" height="16.24" style="fill:#fafafa"></rect><rect x="120.42" y="359.88" width="33.02" height="8.12" style="fill:#e6e6e6"></rect><rect x="88.66" y="357.61" width="36.25" height="16.24" transform="translate(213.57 731.45) rotate(180)" style="fill:#fafafa"></rect><rect x="90.47" y="359.88" width="33.02" height="8.12" transform="translate(213.96 727.88) rotate(180)" style="fill:#e6e6e6"></rect><rect x="75.96" y="139.8" width="153.17" height="241.91" transform="translate(305.09 521.52) rotate(180)" style="fill:#fafafa"></rect><rect x="82.34" y="146.25" width="140.9" height="51.84" style="fill:#e0e0e0"></rect><rect x="82.34" y="204.91" width="140.9" height="51.84" style="fill:#e0e0e0"></rect><rect x="82.34" y="263.58" width="140.9" height="51.84" style="fill:#e0e0e0"></rect><rect x="82.34" y="322.24" width="140.9" height="51.84" style="fill:#e0e0e0"></rect><polygon points="85.54 315.42 219.24 315.42 207.63 269.28 97.15 269.28 85.54 315.42" style="fill:#e6e6e6"></polygon><polygon points="85.54 373.55 219.24 373.55 207.63 327.41 97.15 327.41 85.54 373.55" style="fill:#e6e6e6"></polygon><polygon points="85.54 256.61 219.24 256.61 207.63 210.48 97.15 210.48 85.54 256.61" style="fill:#e6e6e6"></polygon><polygon points="85.54 197.81 219.24 197.81 207.63 151.67 97.15 151.67 85.54 197.81" style="fill:#e6e6e6"></polygon><rect x="196.83" y="178.27" width="11.21" height="20.4" rx="2.55" transform="translate(404.86 376.95) rotate(180)" style="fill:#f0f0f0"></rect><rect x="197.93" y="177.17" width="9.01" height="1.1" transform="translate(404.86 355.45) rotate(180)" style="fill:#fafafa"></rect><rect x="199.34" y="178.27" width="2.2" height="20.31" transform="translate(400.89 376.86) rotate(180)" style="fill:#fafafa"></rect><rect x="183.54" y="178.27" width="11.21" height="20.4" rx="2.55" style="fill:#f0f0f0"></rect><rect x="184.64" y="177.17" width="9.01" height="1.1" style="fill:#fafafa"></rect><rect x="186.06" y="178.27" width="2.2" height="20.31" style="fill:#fafafa"></rect><rect x="170.26" y="178.27" width="11.21" height="20.4" rx="2.55" style="fill:#f0f0f0"></rect><rect x="171.36" y="177.17" width="9.01" height="1.1" style="fill:#fafafa"></rect><rect x="172.77" y="178.27" width="2.2" height="20.31" style="fill:#fafafa"></rect><rect x="156.97" y="178.27" width="11.21" height="20.4" rx="2.55" style="fill:#f0f0f0"></rect><rect x="158.07" y="177.17" width="9.01" height="1.1" style="fill:#fafafa"></rect><rect x="159.49" y="178.27" width="2.2" height="20.31" style="fill:#fafafa"></rect><rect x="143.69" y="178.27" width="11.21" height="20.4" rx="2.55" style="fill:#f0f0f0"></rect><rect x="144.79" y="177.17" width="9.01" height="1.1" style="fill:#fafafa"></rect><rect x="146.2" y="178.27" width="2.2" height="20.31" style="fill:#fafafa"></rect><rect x="130.4" y="178.27" width="11.21" height="20.4" rx="2.55" style="fill:#f0f0f0"></rect><rect x="131.5" y="177.17" width="9.01" height="1.1" style="fill:#fafafa"></rect><rect x="132.92" y="178.27" width="2.2" height="20.31" style="fill:#fafafa"></rect><rect x="117.12" y="178.27" width="11.21" height="20.4" rx="2.55" style="fill:#f0f0f0"></rect><rect x="118.22" y="177.17" width="9.01" height="1.1" style="fill:#fafafa"></rect><rect x="119.64" y="178.27" width="2.2" height="20.31" style="fill:#fafafa"></rect><rect x="103.83" y="178.27" width="11.21" height="20.4" rx="2.55" style="fill:#f0f0f0"></rect><rect x="104.93" y="177.17" width="9.01" height="1.1" style="fill:#fafafa"></rect><rect x="106.35" y="178.27" width="2.2" height="20.31" style="fill:#fafafa"></rect><rect x="90.55" y="178.27" width="11.21" height="20.4" rx="2.55" transform="translate(192.3 376.95) rotate(180)" style="fill:#f0f0f0"></rect><rect x="91.65" y="177.17" width="9.01" height="1.1" transform="translate(192.3 355.45) rotate(180)" style="fill:#fafafa"></rect><rect x="93.07" y="178.27" width="2.2" height="20.31" transform="translate(188.33 376.86) rotate(180)" style="fill:#fafafa"></rect><path d="M197,237.11v17.27a2,2,0,0,0,2,2h6.64a2,2,0,0,0,2-2V237.11a5.27,5.27,0,0,0-3.69-5v-1.19h-3.11v1.16a5.1,5.1,0,0,0-2.24,1.32A5.28,5.28,0,0,0,197,237.11Z" style="fill:#f0f0f0"></path><rect x="200.35" y="228.34" width="4.02" height="2.56" transform="translate(404.71 459.23) rotate(180)" style="fill:#fafafa"></rect><rect x="197.79" y="237.11" width="9.01" height="10.59" transform="translate(404.58 484.82) rotate(180)" style="fill:#e0e0e0"></rect><path d="M183.73,237.11v17.27a2,2,0,0,0,2,2h6.63a2,2,0,0,0,2-2V237.11a5.27,5.27,0,0,0-3.68-5v-1.19h-3.11v1.16a5.08,5.08,0,0,0-2.25,1.32A5.27,5.27,0,0,0,183.73,237.11Z" style="fill:#f0f0f0"></path><rect x="187.08" y="228.34" width="4.02" height="2.56" style="fill:#fafafa"></rect><rect x="184.52" y="237.11" width="9.01" height="10.59" style="fill:#e0e0e0"></rect><path d="M170.46,237.11v17.27a2,2,0,0,0,2,2h6.63a2,2,0,0,0,2-2V237.11a5.27,5.27,0,0,0-3.68-5v-1.19h-3.11v1.16a5.13,5.13,0,0,0-2.25,1.32A5.27,5.27,0,0,0,170.46,237.11Z" style="fill:#f0f0f0"></path><rect x="173.81" y="228.34" width="4.02" height="2.56" style="fill:#fafafa"></rect><rect x="171.25" y="237.11" width="9.01" height="10.59" style="fill:#e0e0e0"></rect><path d="M157.19,237.11v17.27a2,2,0,0,0,2,2h6.64a2,2,0,0,0,2-2V237.11a5.27,5.27,0,0,0-3.68-5v-1.19H161v1.16a5.13,5.13,0,0,0-2.25,1.32A5.27,5.27,0,0,0,157.19,237.11Z" style="fill:#f0f0f0"></path><rect x="160.54" y="228.34" width="4.02" height="2.56" style="fill:#fafafa"></rect><rect x="157.99" y="237.11" width="9.01" height="10.59" style="fill:#e0e0e0"></rect><path d="M143.93,237.11v17.27a2,2,0,0,0,2,2h6.64a2,2,0,0,0,2-2V237.11a5.27,5.27,0,0,0-3.69-5v-1.19h-3.11v1.16a5.1,5.1,0,0,0-2.24,1.32A5.27,5.27,0,0,0,143.93,237.11Z" style="fill:#f0f0f0"></path><rect x="147.28" y="228.34" width="4.02" height="2.56" style="fill:#fafafa"></rect><rect x="144.72" y="237.11" width="9.01" height="10.59" style="fill:#e0e0e0"></rect><path d="M130.66,237.11v17.27a2,2,0,0,0,2,2h6.63a2,2,0,0,0,2-2V237.11a5.27,5.27,0,0,0-3.68-5v-1.19h-3.11v1.16a5.08,5.08,0,0,0-2.25,1.32A5.27,5.27,0,0,0,130.66,237.11Z" style="fill:#f0f0f0"></path><rect x="134.01" y="228.34" width="4.02" height="2.56" style="fill:#fafafa"></rect><rect x="131.45" y="237.11" width="9.01" height="10.59" style="fill:#e0e0e0"></rect><path d="M117.39,237.11v17.27a2,2,0,0,0,2,2H126a2,2,0,0,0,2-2V237.11a5.27,5.27,0,0,0-3.68-5v-1.19h-3.11v1.16a5.13,5.13,0,0,0-2.25,1.32A5.27,5.27,0,0,0,117.39,237.11Z" style="fill:#f0f0f0"></path><rect x="120.74" y="228.34" width="4.02" height="2.56" style="fill:#fafafa"></rect><rect x="118.18" y="237.11" width="9.01" height="10.59" style="fill:#e0e0e0"></rect><path d="M104.12,237.11v17.27a2,2,0,0,0,2,2h6.64a2,2,0,0,0,2-2V237.11a5.27,5.27,0,0,0-3.68-5v-1.19h-3.11v1.16a5.13,5.13,0,0,0-2.25,1.32A5.27,5.27,0,0,0,104.12,237.11Z" style="fill:#f0f0f0"></path><rect x="107.47" y="228.34" width="4.02" height="2.56" style="fill:#fafafa"></rect><rect x="104.92" y="237.11" width="9.01" height="10.59" style="fill:#e0e0e0"></rect><path d="M90.86,237.11v17.27a2,2,0,0,0,2,2h6.63a2,2,0,0,0,2-2V237.11a5.27,5.27,0,0,0-3.68-5v-1.19H94.65v1.16a5.1,5.1,0,0,0-2.24,1.32A5.27,5.27,0,0,0,90.86,237.11Z" style="fill:#f0f0f0"></path><rect x="94.21" y="228.34" width="4.02" height="2.56" transform="translate(192.43 459.23) rotate(180)" style="fill:#fafafa"></rect><rect x="91.65" y="237.11" width="9.01" height="10.59" transform="translate(192.3 484.82) rotate(180)" style="fill:#e0e0e0"></rect><path d="M185.94,315.42h0a71.51,71.51,0,0,1,22.94-.76l5.88.76-1-6.14a71.54,71.54,0,0,1,0-22.15l1-6.14-2.65.43a71.54,71.54,0,0,1-21.17.26l-5-.69,1,8.56a71.6,71.6,0,0,1,0,17.31Z" style="fill:#fafafa"></path><ellipse cx="200.35" cy="299.46" rx="9.01" ry="7.11" style="fill:#e6e6e6"></ellipse><path d="M169.72,315.42h0a71.53,71.53,0,0,1,22.94-.76l5.89.76-1-6.14a71.54,71.54,0,0,1,0-22.15l1-6.14-2.65.43a71.54,71.54,0,0,1-21.17.26l-5-.69,1.05,8.56a71.6,71.6,0,0,1,0,17.31Z" style="fill:#fafafa"></path><ellipse cx="184.13" cy="299.46" rx="9.01" ry="7.11" style="fill:#e6e6e6"></ellipse><path d="M153.51,315.42h0a71.53,71.53,0,0,1,22.94-.76l5.88.76-1-6.14a71.54,71.54,0,0,1,0-22.15l1-6.14-2.64.43a71.54,71.54,0,0,1-21.17.26l-5-.69,1.05,8.56a71.6,71.6,0,0,1,0,17.31Z" style="fill:#fafafa"></path><ellipse cx="167.92" cy="299.46" rx="9.01" ry="7.11" style="fill:#e6e6e6"></ellipse><path d="M137.3,315.42h0a71.52,71.52,0,0,1,22.94-.76l5.88.76-1-6.14a71.54,71.54,0,0,1,0-22.15l1-6.14-2.64.43a71.54,71.54,0,0,1-21.17.26l-5-.69,1,8.56a71.6,71.6,0,0,1,0,17.31Z" style="fill:#fafafa"></path><ellipse cx="151.71" cy="299.46" rx="9.01" ry="7.11" style="fill:#e6e6e6"></ellipse><path d="M121.09,315.42h0a71.51,71.51,0,0,1,22.94-.76l5.88.76-1-6.14a70.93,70.93,0,0,1,0-22.15l1-6.14-2.64.43a71.6,71.6,0,0,1-21.18.26l-5-.69,1,8.56a70.6,70.6,0,0,1,0,17.31Z" style="fill:#fafafa"></path><ellipse cx="135.5" cy="299.46" rx="9.01" ry="7.11" style="fill:#e6e6e6"></ellipse><path d="M104.88,315.42h0a71.51,71.51,0,0,1,22.94-.76l5.88.76-1-6.14a71.54,71.54,0,0,1,0-22.15l1-6.14-2.65.43a71.54,71.54,0,0,1-21.17.26l-5-.69,1,8.56a71.6,71.6,0,0,1,0,17.31Z" style="fill:#fafafa"></path><ellipse cx="119.29" cy="299.46" rx="9.01" ry="7.11" style="fill:#e6e6e6"></ellipse><path d="M88.66,315.42h0a71.53,71.53,0,0,1,22.94-.76l5.89.76-1-6.14a71.54,71.54,0,0,1,0-22.15l1-6.14-2.65.43a71.54,71.54,0,0,1-21.17.26l-5-.69,1,8.56a71.6,71.6,0,0,1,0,17.31Z" style="fill:#fafafa"></path><ellipse cx="103.08" cy="299.46" rx="9.01" ry="7.11" style="fill:#e6e6e6"></ellipse><rect x="178.51" y="357.61" width="36.25" height="16.24" transform="translate(393.27 731.45) rotate(180)" style="fill:#fafafa"></rect><rect x="180.31" y="359.88" width="33.02" height="8.12" transform="translate(393.65 727.88) rotate(180)" style="fill:#e6e6e6"></rect><rect x="148.56" y="357.61" width="36.25" height="16.24" style="fill:#fafafa"></rect><rect x="150.36" y="359.88" width="33.02" height="8.12" style="fill:#e6e6e6"></rect><rect x="118.61" y="357.61" width="36.25" height="16.24" style="fill:#fafafa"></rect><rect x="120.42" y="359.88" width="33.02" height="8.12" style="fill:#e6e6e6"></rect><rect x="88.66" y="357.61" width="36.25" height="16.24" transform="translate(213.57 731.45) rotate(180)" style="fill:#fafafa"></rect><rect x="90.47" y="359.88" width="33.02" height="8.12" transform="translate(213.96 727.88) rotate(180)" style="fill:#e6e6e6"></rect><rect x="173.95" y="341.73" width="36.25" height="16.24" transform="translate(384.15 699.7) rotate(180)" style="fill:#fafafa"></rect><rect x="175.75" y="344" width="33.02" height="8.12" transform="translate(384.53 696.12) rotate(180)" style="fill:#e6e6e6"></rect><rect x="147.44" y="341.73" width="36.25" height="16.24" style="fill:#fafafa"></rect><rect x="149.24" y="344" width="33.02" height="8.12" style="fill:#e6e6e6"></rect><rect x="120.93" y="341.73" width="36.25" height="16.24" style="fill:#fafafa"></rect><rect x="122.73" y="344" width="33.02" height="8.12" style="fill:#e6e6e6"></rect><rect x="94.43" y="341.73" width="36.25" height="16.24" transform="translate(225.1 699.7) rotate(180)" style="fill:#fafafa"></rect><rect x="96.23" y="344" width="33.02" height="8.12" transform="translate(225.48 696.12) rotate(180)" style="fill:#e6e6e6"></rect></g><g id="freepik--Shadow--inject-126"><ellipse id="freepik--path--inject-126" cx="250" cy="416.24" rx="193.89" ry="11.32" style="fill:#f5f5f5"></ellipse></g><g id="freepik--Clothes--inject-126"><path d="M249.56,413.07H246V180.28a1.5,1.5,0,0,0-1.5-1.5H96.41a1.5,1.5,0,0,0-1.5,1.5V413.07H91.55a1.5,1.5,0,0,0,0,3h11.06a1.5,1.5,0,0,0,0-3h-4.7V181.78H243V413.07h-4.5a1.5,1.5,0,1,0,0,3h11.06a1.5,1.5,0,0,0,0-3Z" style="fill:#263238"></path><path d="M249.56,413.07H246V180.28a1.5,1.5,0,0,0-1.5-1.5H96.41a1.5,1.5,0,0,0-1.5,1.5V413.07H91.55a1.5,1.5,0,0,0,0,3h11.06a1.5,1.5,0,0,0,0-3h-4.7V181.78H243V413.07h-4.5a1.5,1.5,0,1,0,0,3h11.06a1.5,1.5,0,0,0,0-3Z" style="fill:#fff;isolation:isolate;opacity:0.7000000000000001"></path><path d="M78.44,283.76v7.31s4.8,2.21,9.16,0S86.87,282.58,78.44,283.76Z" style="fill:#14B017"></path><path d="M78.44,283.76v7.31s4.8,2.21,9.16,0S86.87,282.58,78.44,283.76Z" style="fill:#fff;isolation:isolate;opacity:0.5"></path><path d="M134.41,283.91v7.16s-5.53,3.13-8,1.77S125,282.46,134.41,283.91Z" style="fill:#14B017"></path><path d="M134.41,283.91v7.16s-5.53,3.13-8,1.77S125,282.46,134.41,283.91Z" style="fill:#fff;isolation:isolate;opacity:0.5"></path><path d="M84.84,297.58v5S100.19,305,106,304s15.53-1.21,17.77-1.4a6,6,0,0,0,3.41-1.3v-5.44Z" style="fill:#14B017"></path><path d="M84.84,297.58v5S100.19,305,106,304s15.53-1.21,17.77-1.4a6,6,0,0,0,3.41-1.3v-5.44Z" style="fill:#fff;isolation:isolate;opacity:0.5"></path><path d="M128.49,211H85.08a1.94,1.94,0,0,1-1.1-3.54l23.21-16a.56.56,0,0,1,.64,0l21.81,16a1.95,1.95,0,0,1-1.15,3.51Zm-21-18.4L84.61,208.38a.84.84,0,0,0,.47,1.53h43.41a.84.84,0,0,0,.5-1.52Z" style="fill:#263238"></path><path d="M107.5,192.49a.55.55,0,0,1-.55-.55v-5.7c-.56-.91-2.91-4.94-1.79-7a2.42,2.42,0,0,1,2.34-1.14c1.9,0,3.12.46,3.63,1.35a2.51,2.51,0,0,1-.1,2.33.55.55,0,0,1-.75.2.54.54,0,0,1-.2-.75,1.45,1.45,0,0,0,.1-1.23c-.3-.51-1.25-.79-2.68-.79-1.06,0-1.3.42-1.37.56-.67,1.21.77,4.32,1.84,6a.62.62,0,0,1,.09.3v5.86A.56.56,0,0,1,107.5,192.49Z" style="fill:#263238"></path><path d="M93.05,199.33s-9.59,6.39-12.21,9.09-3,78.91-3,78.91l5.9,1.38v10.47s21.57,2.36,23.1,1.94c0,0,19.84-2.6,21.15-3.25v-8.34l7.29-2.54s-.32-74.82-1-77.75-15-10.94-15-10.94l-11.1,4.75Z" style="fill:#14B017"></path><path d="M135.24,287l-3.68,1.29-3.62,1.26v8.34c-1.22.61-18.48,2.9-20.88,3.22l-.27,0a3.25,3.25,0,0,1-.83.05c-4.29,0-22.28-2-22.28-2V288.71l-2.77-.65-3.12-.74s.44-76.21,3-78.91,12.21-9.08,12.21-9.08l14.63,3.61.44.11.66-.29,10.44-4.46s14.39,8,15,10.94S135.24,287,135.24,287Z" style="isolation:isolate;opacity:0.2"></path><path d="M85.23,228.34c-1.29,5.24-.25,22.64,0,25.95s-1.52,34.42-1.52,34.42l-2.77-.65c.72-7.58,2.6-24,2.77-25.78.23-2.18-1.1-16.5-1.53-20.42s1.53-25.32,1.53-25.32S86.51,223.11,85.23,228.34Z" style="opacity:0.2"></path><path d="M129.88,274.52a113.42,113.42,0,0,1,1.68,13.75l-3.62,1.26c-.22-8.67,0-24.57,0-31.89s2.8-13.45,1.94-21-.94-20.06-.94-20.06a81.59,81.59,0,0,1,2.92,21.57C131.86,250.15,129,270.63,129.88,274.52Z" style="opacity:0.2"></path><g style="opacity:0.2"><path d="M107.85,233.59c-.41,10.42-.8,18.25-.79,23,0,10.29,0,37.2,0,44.45l-.27,0a3.25,3.25,0,0,1-.83.05c0-7.1,0-34.21,0-44.53,0-4.82.38-12.67.78-23.09.43-11.18.92-23.53.94-30.61l.44.11.66-.29C108.77,209.72,108.31,221.81,107.85,233.59Z"></path></g><path d="M125.32,200.71c-1.35,2.83-12.58,6.16-12.58,6.16a19.5,19.5,0,0,0-9.62-.51s-12.22-.91-13.51-4.68,7.57-5.35,7.57-5.35c2.44-1.67,7.28,4.88,7.28,4.88h0l6.49.59h0s5.46-6.24,7.23-6.08S126.66,197.89,125.32,200.71Z" style="fill:#14B017"></path><path d="M125.32,200.71c-1.35,2.83-12.58,6.16-12.58,6.16a19.5,19.5,0,0,0-9.62-.51s-12.22-.91-13.51-4.68,7.57-5.35,7.57-5.35c2.44-1.67,7.28,4.88,7.28,4.88h0a19.74,19.74,0,0,1,.91,3.52,4.84,4.84,0,0,0,4,.1,28.64,28.64,0,0,1,1.59-3h0s5.46-6.24,7.23-6.08S126.66,197.89,125.32,200.71Z" style="fill:#fff;isolation:isolate;opacity:0.5"></path><path d="M115.21,290.76v7.31s4.8,2.22,9.16,0S123.65,289.58,115.21,290.76Z" style="fill:#263238"></path><path d="M115.21,290.76v7.31s4.8,2.22,9.16,0S123.65,289.58,115.21,290.76Z" style="fill:#fff;isolation:isolate;opacity:0.5"></path><path d="M171.18,290.92v7.15s-5.53,3.14-8,1.77S161.73,289.46,171.18,290.92Z" style="fill:#263238"></path><path d="M171.18,290.92v7.15s-5.53,3.14-8,1.77S161.73,289.46,171.18,290.92Z" style="fill:#fff;isolation:isolate;opacity:0.5"></path><path d="M121.61,304.58v5S137,312,142.73,311s15.53-1.22,17.77-1.41a5.87,5.87,0,0,0,3.41-1.3v-5.43Z" style="fill:#263238"></path><path d="M121.61,304.58v5S137,312,142.73,311s15.53-1.22,17.77-1.41a5.87,5.87,0,0,0,3.41-1.3v-5.43Z" style="fill:#fff;isolation:isolate;opacity:0.5"></path><path d="M165.26,211H121.85a1.94,1.94,0,0,1-1.1-3.54l23.21-16a.56.56,0,0,1,.64,0l21.81,16a1.95,1.95,0,0,1-1.15,3.51Zm-21-18.4-22.88,15.77a.84.84,0,0,0,.47,1.53h43.41a.84.84,0,0,0,.5-1.52Z" style="fill:#263238"></path><path d="M144.27,192.49a.55.55,0,0,1-.55-.55v-5.7c-.56-.91-2.91-4.94-1.79-7a2.42,2.42,0,0,1,2.34-1.14c1.9,0,3.12.46,3.63,1.35a2.51,2.51,0,0,1-.1,2.33.55.55,0,0,1-.75.2.54.54,0,0,1-.2-.75A1.45,1.45,0,0,0,147,180c-.3-.51-1.25-.79-2.68-.79-1.06,0-1.29.42-1.37.56-.67,1.21.78,4.32,1.84,6a.53.53,0,0,1,.09.3v5.86A.56.56,0,0,1,144.27,192.49Z" style="fill:#263238"></path><path d="M129.82,199.33s-9.59,6.39-12.21,9.09-3,85.91-3,85.91l5.9,1.39v10.46s21.57,2.36,23.1,1.94c0,0,19.84-2.59,21.15-3.25v-8.33L172,294s-.32-81.82-1-84.75-15-10.94-15-10.94l-11.1,4.75Z" style="fill:#263238"></path><path d="M172,294l-3.68,1.29-3.62,1.25v8.35c-1.22.6-18.48,2.9-20.88,3.21l-.27,0a4,4,0,0,1-.83,0c-4.29,0-22.28-2-22.28-2V295.72l-2.77-.65-3.12-.74s.44-83.22,3-85.92,12.21-9.08,12.21-9.08l14.63,3.61.44.11.66-.29L156,198.3s14.39,8,15,10.94S172,294,172,294Z" style="fill:#fff;isolation:isolate;opacity:0.7000000000000001"></path><path d="M122,228.34c-1.29,5.24-.25,24.64,0,28s-1.53,39.43-1.53,39.43l-2.77-.65c.72-7.59,2.6-27,2.77-28.79.24-2.18-1.1-20.5-1.53-24.42s1.53-25.32,1.53-25.32S123.28,223.11,122,228.34Z" style="opacity:0.2"></path><path d="M166.65,278.52c.6,2.61,1.29,11.31,1.68,16.76l-3.62,1.25c-.22-8.66,0-29.57,0-36.89s2.8-15.45,1.94-23-.94-20.06-.94-20.06a81.33,81.33,0,0,1,2.93,21.57C168.64,250.15,165.76,274.63,166.65,278.52Z" style="opacity:0.2"></path><g style="opacity:0.2"><path d="M144.62,233.59c-.41,10.42-.8,20.25-.79,25.06,0,10.28,0,42.19,0,49.44l-.27,0a4,4,0,0,1-.83,0c0-7.1,0-39.21,0-49.52,0-4.83.38-14.68.78-25.1.43-11.18.92-23.53.94-30.61l.44.11.66-.29C145.54,209.72,145.08,221.81,144.62,233.59Z"></path></g><path d="M136.15,194.81l8.74,7.49,6.45-6.25a5.57,5.57,0,0,1,6.65-.24c2.58,1.77,5.69,4.24,6.06,6,.66,3.06-19.16,4.55-19.16,4.55s-18.53-1.92-19.84-3.74S128.73,193.54,136.15,194.81Z" style="fill:#263238"></path><path d="M136.15,194.81l8.74,7.49,6.45-6.25a5.57,5.57,0,0,1,6.65-.24c2.58,1.77,5.69,4.24,6.06,6,.66,3.06-19.16,4.55-19.16,4.55s-18.53-1.92-19.84-3.74S128.73,193.54,136.15,194.81Z" style="fill:#fff;isolation:isolate;opacity:0.5"></path><path d="M147.57,205.78a.87.87,0,1,1,.86-.87A.87.87,0,0,1,147.57,205.78Zm0-1.18a.32.32,0,1,0,.31.31A.31.31,0,0,0,147.57,204.6Z" style="fill:#fff"></path><path d="M142.48,205.78a.87.87,0,1,1,.86-.87A.87.87,0,0,1,142.48,205.78Zm0-1.18a.32.32,0,1,0,.31.31A.31.31,0,0,0,142.48,204.6Z" style="fill:#fff"></path><path d="M148.56,216.81h0a.27.27,0,0,1-.23-.31c.69-5.09-1-11.45-1-11.52a.27.27,0,0,1,.2-.33.26.26,0,0,1,.33.19c0,.07,1.71,6.53,1,11.74A.26.26,0,0,1,148.56,216.81Z" style="fill:#fff"></path><path d="M141.47,216.14l-.11,0a.27.27,0,0,1-.14-.36c1.54-3.44,1-10.74,1-10.81a.27.27,0,0,1,.25-.3.29.29,0,0,1,.3.25c0,.31.57,7.52-1,11.08A.3.3,0,0,1,141.47,216.14Z" style="fill:#fff"></path><path d="M141.89,216.07a.48.48,0,0,1-.48.47.48.48,0,1,1,0-.95A.48.48,0,0,1,141.89,216.07Z" style="fill:#fff"></path><path d="M149,216.54a.47.47,0,0,1-.48.48.48.48,0,1,1,0-1A.47.47,0,0,1,149,216.54Z" style="fill:#fff"></path><path d="M155.66,276.42v7.31s4.79,2.22,9.15,0S164.09,275.25,155.66,276.42Z" style="fill:#14B017"></path><path d="M211.64,274.76v7.16s-5.52,3.13-8,1.77S202.19,273.31,211.64,274.76Z" style="fill:#14B017"></path><path d="M162.05,282.52v5s15.35,2.43,21.12,1.41,15.53-1.22,17.78-1.41a5.86,5.86,0,0,0,3.4-1.3v-5.43Z" style="fill:#14B017"></path><path d="M205.7,211H162.3a1.94,1.94,0,0,1-1.11-3.54l23.21-16a.56.56,0,0,1,.64,0l21.81,16a1.94,1.94,0,0,1,.7,2.18A1.91,1.91,0,0,1,205.7,211Zm-21-18.4-22.89,15.77a.81.81,0,0,0-.33.94.82.82,0,0,0,.81.59h43.4a.84.84,0,0,0,.5-1.52Z" style="fill:#263238"></path><path d="M184.72,192.49a.55.55,0,0,1-.55-.55v-5.7c-.56-.91-2.91-4.94-1.8-7a2.44,2.44,0,0,1,2.35-1.14c1.89,0,3.11.46,3.63,1.35a2.53,2.53,0,0,1-.11,2.33.55.55,0,1,1-1-.55,1.45,1.45,0,0,0,.1-1.23c-.3-.51-1.25-.79-2.67-.79-1.07,0-1.3.42-1.38.56-.66,1.21.78,4.32,1.84,6a.53.53,0,0,1,.09.3v5.86A.55.55,0,0,1,184.72,192.49Z" style="fill:#263238"></path><path d="M174.18,197.18s-13.51,8.54-16.12,11.24S155,280,155,280l5.9,1.39v2.74s21.57,2.36,23.1,1.94c0,0,19.84-2.59,21.15-3.25v-.61l7.3-2.55s-.32-67.48-1-70.41-15-10.94-15-10.94l-11.09,4.75Z" style="fill:#14B017"></path><path d="M212.45,279.65l-3.68,1.29-3.62,1.25v.63c-1.22.6-18.48,2.9-20.87,3.21l-.28,0a4,4,0,0,1-.83,0c-4.28,0-22.27-2-22.27-2v-2.74l-2.78-.65L155,280s.44-68.88,3.05-71.58,16.13-11.23,16.13-11.23l10.71,5.76.45.11.66-.29,10.44-4.46s14.38,8,15,10.94S212.45,279.65,212.45,279.65Z" style="fill:#fff;isolation:isolate;opacity:0.2"></path><path d="M162.44,228.34c-1.29,5.24-.24,24.64,0,28s-1.52,25.09-1.52,25.09l-2.78-.65c.73-7.59,2.6-27,2.78-28.78.23-2.19-1.1-6.17-1.53-10.09s1.53-25.32,1.53-25.32S163.72,223.11,162.44,228.34Z" style="opacity:0.2"></path><path d="M207.09,264.18c.6,2.61,1.29,11.31,1.68,16.76l-3.62,1.25c-.22-8.66,0-15.23,0-22.55s2.8-15.45,1.94-23-.93-20.06-.93-20.06a81.59,81.59,0,0,1,2.92,21.57C209.08,250.15,206.2,260.29,207.09,264.18Z" style="opacity:0.2"></path><g style="opacity:0.2"><path d="M185.06,233.59c-.41,10.42-.79,20.25-.78,25.06,0,10.28,0,20.13,0,27.38l-.28,0a4,4,0,0,1-.83,0c0-7.1,0-17.15,0-27.46,0-4.83.38-14.68.79-25.1.43-11.18.91-23.53.93-30.61l.45.11.66-.29C186,209.72,185.52,221.81,185.06,233.59Z"></path></g><path d="M173.09,197.83l2.29-5.75a53.56,53.56,0,0,1,7.24,3.64c2,1.44,2.72,6.35,2.72,6.35s1.54-6.21,2.71-7.41,6.52-2.58,6.52-2.58l1.87,6.22s-6.4,4.41-11.55,5.29A99.11,99.11,0,0,1,173.09,197.83Z" style="fill:#14B017"></path><path d="M246.15,211H202.74a1.94,1.94,0,0,1-1.1-3.54l23.21-16a.56.56,0,0,1,.64,0l21.8,16a1.94,1.94,0,0,1-1.14,3.51Zm-21-18.4-22.89,15.77a.82.82,0,0,0-.32.94.81.81,0,0,0,.8.59h43.41a.84.84,0,0,0,.49-1.52Z" style="fill:#263238"></path><path d="M225.16,192.49a.55.55,0,0,1-.55-.55v-5.7c-.56-.91-2.91-4.94-1.79-7a2.41,2.41,0,0,1,2.34-1.14c1.9,0,3.12.46,3.63,1.35a2.51,2.51,0,0,1-.1,2.33.56.56,0,0,1-.76.2.55.55,0,0,1-.2-.75,1.41,1.41,0,0,0,.1-1.23c-.29-.51-1.24-.79-2.67-.79-1.06,0-1.3.42-1.38.56-.66,1.21.78,4.32,1.84,6a.53.53,0,0,1,.09.3v5.86A.55.55,0,0,1,225.16,192.49Z" style="fill:#263238"></path><path d="M210.71,199.33s-9.6,6.39-12.21,9.09-3.05,85.91-3.05,85.91l5.89,1.39v4.95s21.57,2.36,23.1,1.94c0,0,19.85-2.6,21.15-3.25v-2.82l7.3-2.55s-.32-81.82-1-84.75-15-10.94-15-10.94l-11.09,4.75Z" style="fill:#263238"></path><path d="M252.89,294l-3.68,1.29-3.61,1.25v2.83c-1.23.61-18.49,2.9-20.88,3.22l-.28,0a3.16,3.16,0,0,1-.82.05c-4.29,0-22.28-2-22.28-2v-4.94l-2.78-.65-3.12-.74s.44-83.22,3.06-85.92,12.21-9.08,12.21-9.08l14.63,3.61.44.11.66-.29,10.44-4.46s14.38,8,15,10.94S252.89,294,252.89,294Z" style="fill:#fff;isolation:isolate;opacity:0.2"></path><path d="M202.88,228.34c-1.29,5.24-.24,24.64,0,28s-1.52,39.43-1.52,39.43l-2.78-.65c.73-7.59,2.6-27,2.78-28.79.23-2.18-1.1-20.5-1.53-24.42s1.53-25.32,1.53-25.32S204.16,223.11,202.88,228.34Z" style="opacity:0.2"></path><path d="M247.54,278.52c.59,2.61,1.29,11.31,1.67,16.76l-3.61,1.25c-.22-8.66,0-29.57,0-36.89s2.8-15.45,1.94-23-.94-20.06-.94-20.06a81.59,81.59,0,0,1,2.92,21.57C249.52,250.15,246.64,274.63,247.54,278.52Z" style="opacity:0.2"></path><g style="opacity:0.2"><path d="M225.5,233.59c-.41,10.42-.79,20.25-.78,25.06,0,10.28,0,36.68,0,43.93l-.28,0a3.16,3.16,0,0,1-.82.05c0-7.1,0-33.7,0-44,0-4.83.37-14.68.78-25.1.43-11.18.92-23.53.94-30.61l.44.11.66-.29C226.43,209.72,226,221.81,225.5,233.59Z"></path></g><path d="M225.78,201.2s9.21-6.1,10.11-5.94,7.42,5.25,7.42,5.25-4.6,10.87-8,10.9c-1.08,0-9.55-8.36-9.55-8.36s-8.32,8.36-10.21,8.36c-.46,0-8.57-8.93-8.5-10.21s5.88-5.26,7.63-5.23S225.78,201.2,225.78,201.2Z" style="fill:#263238"></path></g><g id="freepik--Plant--inject-126"><path d="M103.43,341.78c.21,1.47-3.78,2.44-7,3,.27,2.67,2,5.37,4.5,7.89,3.08-1.74,7.49-4,8.3-3.48s-3.63,3.53-6.45,5.25a59,59,0,0,0,6.39,4.84c1.39-1.3,3-2.43,4-1.82s.73,2.64.24,4.42c3.35,2,5.87,3.15,5.87,3.15a69.18,69.18,0,0,0,2.24-9.53c-.17-.33-.34-.67-.49-1-.55-1.25,0-1.78.87-2a32.83,32.83,0,0,0,.06-6.86c-3.8-.8-8.42-2.28-6.69-4.55,1.05-1.38,3-1.53,4.94-1.19a7.9,7.9,0,0,0-.93-1.28c-6.92-7.62-11.74,0-11.74,0-4-3.35-9.66-2.44-10.88,2.79C98.85,340.82,103.17,340,103.43,341.78Z" style="fill:#14B017"></path><path d="M103.43,341.78c.21,1.47-3.78,2.44-7,3,.27,2.67,2,5.37,4.5,7.89,3.08-1.74,7.49-4,8.3-3.48s-3.63,3.53-6.45,5.25a59,59,0,0,0,6.39,4.84c1.39-1.3,3-2.43,4-1.82s.73,2.64.24,4.42c3.35,2,5.87,3.15,5.87,3.15a69.18,69.18,0,0,0,2.24-9.53c-.17-.33-.34-.67-.49-1-.55-1.25,0-1.78.87-2a32.83,32.83,0,0,0,.06-6.86c-3.8-.8-8.42-2.28-6.69-4.55,1.05-1.38,3-1.53,4.94-1.19a7.9,7.9,0,0,0-.93-1.28c-6.92-7.62-11.74,0-11.74,0-4-3.35-9.66-2.44-10.88,2.79C98.85,340.82,103.17,340,103.43,341.78Z" style="isolation:isolate;opacity:0.2"></path><path d="M112.06,397.77l-1-.09c0-.51,4.09-51.52-7.35-56.33a3.85,3.85,0,0,0-3.47.09c-4.14,2.15-6.12,11.08-6.14,11.17l-1-.21c.08-.39,2.1-9.48,6.65-11.85a4.89,4.89,0,0,1,4.32-.12C116.2,345.52,112.23,395.64,112.06,397.77Z" style="fill:#14B017"></path><path d="M113.5,396.66c-.2-2.29-4.88-56.27,3.86-62,2.1-1.37,4-1.66,5.55-.86,4.13,2.08,4.67,10.91,4.69,11.29l-1,.05c0-.08-.52-8.62-4.14-10.45-1.24-.62-2.78-.35-4.55.81-8.24,5.41-3.46,60.52-3.41,61.07Z" style="fill:#14B017"></path><path d="M114.81,401c-.06-1.75-1.5-43.07,6.46-46.68a5.55,5.55,0,0,1,4.73,0c5.46,2.4,8.83,12.58,9,13l-.95.31c0-.1-3.37-10.18-8.43-12.41a4.58,4.58,0,0,0-3.91,0c-6.1,2.77-6.3,34-5.87,45.74Z" style="fill:#14B017"></path><path d="M112.79,399.14l-1-.12c1.4-12.29,4.08-45.06-.3-49a1.72,1.72,0,0,0-1.79-.55c-2.94,1.12-4.72,11.78-5.17,15.79l-1-.11c.17-1.53,1.77-15.07,5.8-16.62a2.64,2.64,0,0,1,2.81.75C117.82,354.36,113,397.31,112.79,399.14Z" style="fill:#14B017"></path><polygon points="96.1 375.82 132.03 375.82 129.03 416.07 99.1 416.07 96.1 375.82" style="fill:#263238"></polygon><polygon points="107.01 375.82 108.01 416.07 129.03 416.07 132.03 375.82 107.01 375.82" style="fill:#fff;isolation:isolate;opacity:0.2"></polygon><path d="M101,361.06c-.38,1-3.17.21-5.36-.57-.75,1.73-.58,4,.07,6.4,2.5,0,6,.08,6.31.7s-3.45.94-5.77,1a40.53,40.53,0,0,0,2.28,5.17c1.29-.32,2.68-.47,3.06.24s-.45,1.88-1.37,2.81c1.4,2.36,2.55,4,2.55,4a48.57,48.57,0,0,0,4.65-5.1c0-.27,0-.53,0-.81.09-.95.6-1.1,1.21-.9a24,24,0,0,0,2.39-4.22c-2.07-1.79-4.42-4.29-2.57-5.1,1.12-.49,2.35.07,3.46,1a7,7,0,0,0-.14-1.11c-1.66-7.06-7.24-4-7.24-4-1.33-3.44-5.12-4.82-7.67-2C98.5,358.9,101.46,359.85,101,361.06Z" style="fill:#14B017"></path><path d="M101,361.06c-.38,1-3.17.21-5.36-.57-.75,1.73-.58,4,.07,6.4,2.5,0,6,.08,6.31.7s-3.45.94-5.77,1a40.53,40.53,0,0,0,2.28,5.17c1.29-.32,2.68-.47,3.06.24s-.45,1.88-1.37,2.81c1.4,2.36,2.55,4,2.55,4a48.57,48.57,0,0,0,4.65-5.1c0-.27,0-.53,0-.81.09-.95.6-1.1,1.21-.9a24,24,0,0,0,2.39-4.22c-2.07-1.79-4.42-4.29-2.57-5.1,1.12-.49,2.35.07,3.46,1a7,7,0,0,0-.14-1.11c-1.66-7.06-7.24-4-7.24-4-1.33-3.44-5.12-4.82-7.67-2C98.5,358.9,101.46,359.85,101,361.06Z" style="isolation:isolate;opacity:0.1"></path><path d="M127.67,365.83a14,14,0,0,0-3.28.7,7.65,7.65,0,0,1-.49-2.38c-.22-7.25,5-4.19,7.7-6.32a5.92,5.92,0,0,1,4.59-1.44,11,11,0,0,0-.62,1.24,1.13,1.13,0,0,0,.88,1.55,3.23,3.23,0,0,0,2-.24,4.8,4.8,0,0,0,.52-.36,9.48,9.48,0,0,1,1,2.42,14.08,14.08,0,0,1,.47,3.1,10.37,10.37,0,0,0-1.21.34,1.13,1.13,0,0,0-.46,1.72,5,5,0,0,0,1.5,1,16.82,16.82,0,0,1-.91,3.4c-.13,0-.25,0-.37.06-.27.05-.53.12-.79.19a2.5,2.5,0,0,0-.43.16,1.16,1.16,0,0,0-.68.88,1.13,1.13,0,0,0,.43,1,3.71,3.71,0,0,0,.54.33,8,8,0,0,1-2.87,2.9,31.08,31.08,0,0,1-3.05-1.61c.21-.29.43-.58.63-.88a1.74,1.74,0,0,0,.31-1.14,1.55,1.55,0,0,0-1.73-1.33,1.56,1.56,0,0,0-1,.59c-.24.35-.5.69-.77,1a18.82,18.82,0,0,1-3.68-3.57l.11,0a11,11,0,0,1,2-.34,1.54,1.54,0,1,0-.4-3.06Z" style="fill:#14B017"></path><path d="M129.74,340.85a10.15,10.15,0,0,1,2-1.08,5.31,5.31,0,0,0-.79-1.46c-3.06-3.9-4.44,0-6.82.06a4.09,4.09,0,0,0-3,1.26,6.74,6.74,0,0,1,.87.38.77.77,0,0,1,.22,1.2A2.22,2.22,0,0,1,121,342a2.08,2.08,0,0,1-.43,0,6.53,6.53,0,0,0,.54,1.71,8.83,8.83,0,0,0,1.11,1.84,7,7,0,0,1,.79-.35.77.77,0,0,1,1,.7,3.8,3.8,0,0,1-.32,1.21,10.78,10.78,0,0,0,2,1.38l.21-.13c.17-.09.33-.17.5-.24l.3-.11a.78.78,0,0,1,.74.17.75.75,0,0,1,.23.73,2.8,2.8,0,0,1-.13.41,5.49,5.49,0,0,0,2.78.27,20.82,20.82,0,0,0,.89-2.19l-.72-.19a1.15,1.15,0,0,1-.66-.46,1,1,0,0,1-.14-.79,1.09,1.09,0,0,1,.46-.66,1,1,0,0,1,.8-.14c.28.08.57.14.86.2a13,13,0,0,0,.36-3.49l-.07,0a7.82,7.82,0,0,0-1.22.72,1.07,1.07,0,0,1-1.46-.32A1.08,1.08,0,0,1,129.74,340.85Z" style="fill:#14B017"></path><path d="M129.74,340.85a10.15,10.15,0,0,1,2-1.08,5.31,5.31,0,0,0-.79-1.46c-3.06-3.9-4.44,0-6.82.06a4.09,4.09,0,0,0-3,1.26,6.74,6.74,0,0,1,.87.38.77.77,0,0,1,.22,1.2A2.22,2.22,0,0,1,121,342a2.08,2.08,0,0,1-.43,0,6.53,6.53,0,0,0,.54,1.71,8.83,8.83,0,0,0,1.11,1.84,7,7,0,0,1,.79-.35.77.77,0,0,1,1,.7,3.8,3.8,0,0,1-.32,1.21,10.78,10.78,0,0,0,2,1.38l.21-.13c.17-.09.33-.17.5-.24l.3-.11a.78.78,0,0,1,.74.17.75.75,0,0,1,.23.73,2.8,2.8,0,0,1-.13.41,5.49,5.49,0,0,0,2.78.27,20.82,20.82,0,0,0,.89-2.19l-.72-.19a1.15,1.15,0,0,1-.66-.46,1,1,0,0,1-.14-.79,1.09,1.09,0,0,1,.46-.66,1,1,0,0,1,.8-.14c.28.08.57.14.86.2a13,13,0,0,0,.36-3.49l-.07,0a7.82,7.82,0,0,0-1.22.72,1.07,1.07,0,0,1-1.46-.32A1.08,1.08,0,0,1,129.74,340.85Z" style="isolation:isolate;opacity:0.2"></path><path d="M100.47,348.1c-.21,1.48,3.78,2.44,7,3-.27,2.66-2,5.36-4.49,7.88-3.09-1.74-7.49-4-8.31-3.47s3.63,3.53,6.45,5.24a59,59,0,0,1-6.39,4.84c-1.38-1.29-3-2.43-4-1.81s-.73,2.63-.23,4.42c-3.36,1.95-5.87,3.14-5.87,3.14a68.29,68.29,0,0,1-2.25-9.53c.17-.33.34-.67.5-1,.54-1.26,0-1.79-.88-2A33.63,33.63,0,0,1,82,352c3.8-.8,8.42-2.27,6.69-4.55-1-1.37-3-1.53-4.94-1.18a8,8,0,0,1,.94-1.28c6.91-7.62,11.73,0,11.73,0,4-3.35,9.67-2.44,10.89,2.79C105.05,347.15,100.73,346.29,100.47,348.1Z" style="fill:#14B017"></path></g><g id="freepik--Sign--inject-126"><polygon points="259.78 412.08 259.78 231.22 264.05 231.22 264.05 412.08 279.12 414.3 279.12 416.07 262.12 416.07 261.71 416.07 244.71 416.07 244.71 414.3 259.78 412.08" style="fill:#263238"></polygon><polygon points="244.71 414.3 244.71 416.07 279.12 416.07 279.12 414.3 264.05 412.08 264.05 231.22 259.78 231.22 259.78 412.08 244.71 414.3" style="fill:#fff;isolation:isolate;opacity:0.6000000000000001"></polygon><polygon points="259.78 267.59 259.78 306.4 264.05 304.48 264.05 267.63 259.78 267.59" style="isolation:isolate;opacity:0.2"></polygon><rect x="201.25" y="181.79" width="121.34" height="92.29" transform="translate(489.85 -33.99) rotate(90)" style="fill:#263238"></rect><rect x="201.25" y="181.79" width="121.34" height="92.29" transform="translate(489.85 -33.99) rotate(90)" style="fill:#fff;isolation:isolate;opacity:0.5"></rect><rect x="204.25" y="184.79" width="115.34" height="86.29" transform="translate(489.85 -33.99) rotate(90)" style="isolation:isolate;opacity:0.2"></rect><polygon points="218.78 170.26 220.78 172.26 303.06 283.6 305.06 285.6 218.78 285.6 218.78 170.26" style="fill:#fff;isolation:isolate;opacity:0.5"></polygon><rect x="220.78" y="172.26" width="82.29" height="111.34" style="fill:#14B017"></rect><text transform="translate(233.12 234.39)" style="opacity:0.5;font-size:30.094879150390625px;font-family:Montserrat-SemiBold, Montserrat;font-weight:600">89$</text><text transform="translate(234.1 268.25)" style="opacity:0.5;font-size:11.198989868164062px;font-family:Montserrat-SemiBold, Montserrat;font-weight:600">ALL ITEM</text><g style="opacity:0.5"><path d="M296.32,277.82H226.08V252.13h70.24Zm-69.24-1h68.24V253.13H227.08Z"></path></g><rect x="220.78" y="172.26" width="82.29" height="19.91" style="opacity:0.5"></rect><text transform="translate(229.78 186.65)" style="font-size:12px;fill:#14B017;font-family:Montserrat-SemiBold, Montserrat;font-weight:600">PREMIUM</text><path d="M259.87,238.64a1.14,1.14,0,0,1-.49-.12,1.1,1.1,0,0,1-.65-.81c-.2-1,.71-2.14,7.53-9.29,4.59-4.81,13-13.58,13.42-16-2.22.59-9.9,7.52-15.06,12.19-9.68,8.74-14.13,12.56-16.33,12.38a1.53,1.53,0,0,1-1.12-.58c-1.65-2,1.88-5.5,10.93-13.48,3.36-3,8.25-7.27,9.39-9.1-3.05,1.05-13,8.67-19.17,13.37-12,9.14-13.62,10.19-14.78,9.37a1.27,1.27,0,0,1-.39-1.51c.68-2,5.62-5.77,13.62-11.67,5.4-4,13.43-9.92,14.32-11.9-2-.13-10.26,5.24-15.28,8.51-9.32,6.08-13,8.29-14.75,7.36a1.48,1.48,0,0,1-.8-1.24c-.14-3,12.65-12,20.3-17.09a1,1,0,0,1,1.38.28,1,1,0,0,1-.27,1.39c-8.31,5.53-17.4,12.38-19.13,14.82,2.05-.59,7.84-4.36,12.18-7.2,10.79-7,15.73-10,17.8-8.36a1.56,1.56,0,0,1,.64,1.31c0,1.5-2.15,3.7-6.6,7.23,8-5.87,11.21-7.53,12.58-6.46a1.58,1.58,0,0,1,.59,1.19c0,1.88-3.1,4.85-10.3,11.2-3.69,3.24-9.66,8.51-10.53,10.47,2.3-.86,9.22-7.12,14.38-11.78,11.56-10.44,16.11-14.2,18-12.24s-1.88,6.74-13.52,18.94l-2,2.1,3.19-2.81c12-10.58,16.57-14.14,18.67-13.06a1.62,1.62,0,0,1,.88,1.21c.28,1.77-2.12,4.38-7.65,9.92-2.45,2.44-6,6-6.71,7.48,2.1-.4,9-5.34,14.75-10.13a1,1,0,1,1,1.29,1.53c-3.1,2.6-13.47,11.05-16.7,10.6a1.66,1.66,0,0,1-1.19-.73c-1.11-1.65,1.08-4.1,7.15-10.17,2.6-2.6,6.44-6.44,7-7.91-2.3.48-11.27,8.41-16.17,12.76C262.9,237.07,261,238.64,259.87,238.64Zm-13.54-12.46c-2,1.49-4.09,3-5.91,4.47C242.3,229.25,244.38,227.67,246.33,226.18Z" style="fill:#fff"></path><path d="M226.78,205.6h-.09a1.07,1.07,0,0,1-1-1.16c.89-10.61,3.87-25.87,3.9-26a1.06,1.06,0,1,1,2.09.41c0,.16-3,15.31-3.87,25.8A1.06,1.06,0,0,1,226.78,205.6Z" style="fill:#fff"></path><path d="M236.94,192.64H226.78a1.07,1.07,0,0,1,0-2.13h10.16a1.07,1.07,0,1,1,0,2.13Z" style="fill:#fff"></path><path d="M234.6,203.91h-.07a1.07,1.07,0,0,1-1-1.14c.56-7.86,4.09-23.71,4.24-24.38a1.05,1.05,0,0,1,1.27-.81,1.08,1.08,0,0,1,.81,1.27c0,.16-3.65,16.37-4.2,24.07A1.06,1.06,0,0,1,234.6,203.91Z" style="fill:#fff"></path><path d="M244.3,204.47a1.06,1.06,0,0,1-1.07-1.06c0-2.22.19-5.4.37-8.47s.4-6.6.38-8.92c-1.27,3.07-3.24,9.2-4.84,14.87a1.07,1.07,0,0,1-2-.58c1.38-4.88,4.77-16.39,6.53-17.83a1.3,1.3,0,0,1,1.45-.2c1.19.61,1.28,2.4.66,12.78-.18,3-.37,6.19-.37,8.35A1.06,1.06,0,0,1,244.3,204.47Z" style="fill:#fff"></path><path d="M238.11,195.2a1.07,1.07,0,0,1-.09-2.13l9.88-.82a1.06,1.06,0,1,1,.18,2.12l-9.88.83Z" style="fill:#fff"></path><path d="M249.25,203.12a2.28,2.28,0,0,1-.45,0,2.45,2.45,0,0,1-1.7-1.15c-1-1.61.71-13.12,2.38-22.5a1.06,1.06,0,1,1,2.09.37c-1.62,9.2-3,19.5-2.65,21,.11.14.19.16.24.16a2.21,2.21,0,0,0,1.28-.48,1.07,1.07,0,0,1,1.3,1.69A4.52,4.52,0,0,1,249.25,203.12Zm-.31-2.25h0Z" style="fill:#fff"></path><path d="M252,206.72a.9.9,0,0,1-.28,0,1.08,1.08,0,0,1-.76-1.3c.26-1,1.33-12.71,1.94-19.86a1.07,1.07,0,0,1,.78-.94l6.94-1.87a1.07,1.07,0,0,1,.55,2.06L255,186.45c-.37,4.32-1.58,18.15-1.94,19.48A1,1,0,0,1,252,206.72Z" style="fill:#fff"></path><path d="M252,194.79a1.07,1.07,0,0,1-.09-2.13l4.78-.41a1.06,1.06,0,0,1,.18,2.12l-4.77.41Z" style="fill:#fff"></path><path d="M266,203.38h-.12a1.06,1.06,0,0,1-.94-1.18c0-.15,1.68-14.64,1.87-21.26a1.05,1.05,0,0,1,1.09-1,1.08,1.08,0,0,1,1,1.09c-.19,6.72-1.82,20.86-1.88,21.46A1.08,1.08,0,0,1,266,203.38Z" style="fill:#fff"></path><path d="M268.15,193.1a3.13,3.13,0,0,1-1.84-.6,1.07,1.07,0,1,1,1.25-1.73c.87.63,2.22-.42,3.11-1.52,1.73-2.12,2.73-5.49,1.45-6.66a1.63,1.63,0,0,0-1.48-.57c-1.23.22-2.43,2.07-2.76,2.7a1.06,1.06,0,0,1-1.43.46,1.08,1.08,0,0,1-.47-1.43c.18-.34,1.79-3.37,4.28-3.83a3.78,3.78,0,0,1,3.29,1.09c2.33,2.12,1.18,6.63-1.22,9.59C271,192.24,269.51,193.1,268.15,193.1Z" style="fill:#fff"></path><path d="M272.24,207.47h-.15a1.07,1.07,0,0,1-.91-1.2l2.35-16.63a1.07,1.07,0,0,1,.75-.87c.66-.2,4-1.13,5.49.54.79.9.8,2.23,0,3.94a29.33,29.33,0,0,1-2.46,4.58l4.37,3.73a1.06,1.06,0,1,1-1.38,1.62l-5.23-4.46a1.08,1.08,0,0,1-.33-1.12,1,1,0,0,1,.52-.63c.16-.16.93-1,2.57-4.61.49-1,.43-1.54.33-1.65-.29-.33-1.52-.3-2.63-.07l-2.25,15.93A1.06,1.06,0,0,1,272.24,207.47Zm3.35-10.62Zm0,0h0Zm0,0Zm0,0Z" style="fill:#fff"></path><path d="M281,200.73h-.07a1.07,1.07,0,0,1-1-1.14l1-16a1.06,1.06,0,1,1,2.12.14l-1,16A1.06,1.06,0,0,1,281,200.73Z" style="fill:#fff"></path><path d="M286.52,199.55c-1.08,0-2.08-.8-3-2.37-2.55-4.34.61-12.59,2.57-14.76,1-1.1,1.84-.95,2.25-.76a2.16,2.16,0,0,1,1.24,1.4,4.61,4.61,0,0,1-.79,3.31A1.07,1.07,0,0,1,287,185.2h0a4,4,0,0,0,.5-1.17,15.51,15.51,0,0,0-2.16,4.82c-.87,3.06-.86,5.77,0,7.26.66,1.11,1.08,1.34,1.17,1.31.25,0,.8-.84,1.07-1.71a1.07,1.07,0,0,1,2,.62c-.15.5-1,3-2.86,3.2Z" style="fill:#fff"></path><path d="M248.69,262.75c-1.28,0-2.53-.82-3.72-2.44-3.05-4.17,0-11.6,2.27-14.65,1.32-1.75,2.57-2.43,3.7-2a2.44,2.44,0,0,1,1.64,1.68c.43,1.58-.85,3.26-1.12,3.58a1.21,1.21,0,0,1-1.71.17,1.22,1.22,0,0,1-.18-1.72,3.26,3.26,0,0,0,.66-1.31c-.74.46-2.39,2.73-3.39,5.78s-1,5.59.1,7c.7,1,1.41,1.5,1.84,1.44.62-.08,1.3-1.22,1.53-1.81a1.22,1.22,0,0,1,2.28.87c-.12.31-1.22,3.05-3.48,3.36Z" style="fill:#fff"></path><path d="M291.18,199.55a1.06,1.06,0,0,1-1.06-1.2c1.07-8.26,1.64-12.58,1.72-12.85a1.06,1.06,0,0,1,2.06.52c-.09.5-.77,5.71-1.35,10.18l1.48-1a1.07,1.07,0,0,1,1.23,1.74l-3.46,2.46A1.09,1.09,0,0,1,291.18,199.55Z" style="fill:#fff"></path><path d="M292.91,191.6a1.06,1.06,0,0,1-.27-2.09l2.86-.75a1.06,1.06,0,0,1,.54,2.06l-2.86.75A1.24,1.24,0,0,1,292.91,191.6Z" style="fill:#fff"></path><path d="M292.91,185.88a1.07,1.07,0,0,1-.25-2.1l4.64-1.12a1.06,1.06,0,0,1,.5,2.07l-4.64,1.12A1.07,1.07,0,0,1,292.91,185.88Z" style="fill:#fff"></path><path d="M257.33,261a3.12,3.12,0,0,1-1-.17,3.6,3.6,0,0,1-2.13-2c-1.57-3.49,1.09-10.19,1.4-10.94a1.22,1.22,0,0,1,2.26.92c-1,2.47-2.3,7.1-1.43,9a1.14,1.14,0,0,0,.7.68.55.55,0,0,0,.51-.07c1.76-1.07,3.43-7.21,4.05-11.23a1.22,1.22,0,1,1,2.41.37c-.27,1.8-1.82,10.92-5.2,12.95A3,3,0,0,1,257.33,261Z" style="fill:#fff"></path><path d="M265.9,246a1.22,1.22,0,0,1-.16-2.43c1.2-.16,11.85-1.58,15.29-.79a1.22,1.22,0,1,1-.54,2.38c-2.55-.58-11.28.4-14.42.83Z" style="fill:#fff"></path><path d="M270.12,263.71a1.22,1.22,0,0,1-1.21-1.11c-.51-5.86,3.09-18.9,3.24-19.45a1.23,1.23,0,0,1,2.36.66c0,.13-3.63,13.15-3.17,18.58a1.22,1.22,0,0,1-1.11,1.32Z" style="fill:#fff"></path></g><g id="freepik--Character--inject-126"><g id="freepik--group--inject-126"><path d="M346.7,200.09c-2.5,4.42-5.1,8.73-7.81,13q-2,3.21-4.16,6.39c-1.41,2.12-2.86,4.22-4.43,6.34l-.38.52c-.18.23-.35.43-.53.63a13.37,13.37,0,0,1-1.08,1.06,15.32,15.32,0,0,1-2.13,1.54,25.92,25.92,0,0,1-4.11,2,48.88,48.88,0,0,1-7.9,2.17,83.6,83.6,0,0,1-15.57,1.48L298,230c4.74-1.16,9.57-2.47,14.08-4a51.14,51.14,0,0,0,6.4-2.6,17.53,17.53,0,0,0,2.55-1.55,8.77,8.77,0,0,0,.85-.75c.09-.12.18-.22.23-.3a.24.24,0,0,0,.06-.11l0-.06.12-.2c2.52-4.09,5-8.48,7.53-12.77s5.05-8.64,7.64-12.9Z" style="fill:#ffb573"></path><path d="M302,228.84l-10.32-1,.59,9s7.12,1.71,10.56-3.26Z" style="fill:#ffb573"></path><polygon points="284.83 230.69 286.88 237.32 292.24 236.9 291.65 227.86 284.83 230.69" style="fill:#ffb573"></polygon><path d="M347,208.21l-5.52,6.69-4.9,5.93L325,214.28s8-18.07,11.6-19.92l5.17,6.87Z" style="fill:#14B017"></path><polygon points="323.96 215 324.98 213.03 337.52 220.42 335.75 222.21 323.96 215" style="fill:#14B017"></polygon><polygon points="323.96 215 324.98 213.03 337.52 220.42 335.75 222.21 323.96 215" style="fill:#fff;opacity:0.6000000000000001"></polygon><path d="M347,208.21l-5.52,6.69a29.61,29.61,0,0,1,.27-13.67Z" style="isolation:isolate;opacity:0.2"></path><polygon points="402.46 408.5 395.06 408.5 394.45 391.34 401.86 391.34 402.46 408.5" style="fill:#ffb573"></polygon><path d="M394,407.64h9a.65.65,0,0,1,.63.51l1.46,6.59a1.09,1.09,0,0,1-.84,1.3l-.24,0c-2.91-.05-5-.23-8.69-.23-2.25,0-9,.24-12.15.24s-3.51-3.07-2.24-3.36c5.71-1.24,10-3,11.83-4.6A1.78,1.78,0,0,1,394,407.64Z" style="fill:#263238"></path><path d="M391.58,408.94a2.25,2.25,0,0,1-1.42-.38,1,1,0,0,1-.37-.94.54.54,0,0,1,.31-.49c.81-.43,3.21,1,3.47,1.21a.18.18,0,0,1,.09.17.17.17,0,0,1-.14.15A8.41,8.41,0,0,1,391.58,408.94Zm-1.1-1.54a.4.4,0,0,0-.22.05c-.05,0-.11.06-.12.21a.73.73,0,0,0,.24.63,3.65,3.65,0,0,0,2.64.13A7.37,7.37,0,0,0,390.48,407.4Z" style="fill:#14B017"></path><path d="M393.48,408.67h-.09c-.76-.41-2.24-2-2.09-2.82a.58.58,0,0,1,.57-.46.9.9,0,0,1,.74.22c.86.7,1,2.83,1.05,2.93a.17.17,0,0,1-.09.16A.14.14,0,0,1,393.48,408.67Zm-1.49-3h-.09c-.22,0-.24.13-.25.18-.09.48.85,1.71,1.61,2.29a4.07,4.07,0,0,0-.88-2.32A.56.56,0,0,0,392,405.67Z" style="fill:#14B017"></path><polygon points="401.86 391.35 394.45 391.35 394.77 400.2 402.18 400.2 401.86 391.35" style="isolation:isolate;opacity:0.2"></polygon><polygon points="364.33 409.05 356.69 409.86 355.26 393.38 362.9 392.57 364.33 409.05" style="fill:#ffb573"></polygon><path d="M355.88,407.4h9a.65.65,0,0,1,.63.51L367,414.5a1.1,1.1,0,0,1-.84,1.3,1,1,0,0,1-.24,0c-2.91,0-5-.22-8.69-.22-2.25,0-9,.23-12.15.23s-3.51-3.07-2.24-3.35c5.71-1.24,10-3,11.83-4.61A1.78,1.78,0,0,1,355.88,407.4Z" style="fill:#263238"></path><path d="M353.43,408.7a2.24,2.24,0,0,1-1.42-.37,1,1,0,0,1-.37-.95.55.55,0,0,1,.3-.49c.82-.42,3.22,1.05,3.48,1.22a.17.17,0,0,1,.09.17.19.19,0,0,1-.14.15A9,9,0,0,1,353.43,408.7Zm-1.1-1.53a.45.45,0,0,0-.23,0s-.1.07-.11.21a.72.72,0,0,0,.24.63,3.52,3.52,0,0,0,2.63.13A7.23,7.23,0,0,0,352.33,407.17Z" style="fill:#14B017"></path><path d="M355.33,408.44h-.09c-.76-.42-2.24-2.05-2.09-2.83a.57.57,0,0,1,.57-.46,1,1,0,0,1,.74.23c.86.69,1,2.82,1.05,2.93a.22.22,0,0,1-.09.16A.14.14,0,0,1,355.33,408.44Zm-1.49-3h-.09c-.22,0-.24.14-.25.18-.1.48.85,1.72,1.61,2.29a4.2,4.2,0,0,0-.88-2.32A.63.63,0,0,0,353.84,405.43Z" style="fill:#14B017"></path><polygon points="362.9 392.57 355.26 393.38 356 401.88 363.64 401.07 362.9 392.57" style="isolation:isolate;opacity:0.2"></polygon><path d="M398.8,240.88H359.5c-3.74,20.4-15.43,92.62-7,157l13.3-1.65s-1.23-85.42,10.52-117c1.35,16.9,3,34.88,4.35,44.45,3.42,23.55,10.74,75,10.74,75h13.54s-2.77-49.26-4.05-72.41C399.46,301.13,398.86,246,398.8,240.88Z" style="fill:#263238"></path><polygon points="350.94 400.94 367.4 398.49 366.9 393.93 349.77 396.18 350.94 400.94" style="fill:#14B017"></polygon><polygon points="389.74 398.77 405.71 398.77 405.71 394 389.13 393.69 389.74 398.77" style="fill:#14B017"></polygon><path d="M376.28,279.2a103.88,103.88,0,0,0-4.39,17c-1.1-15,3.29-31,3.29-31Z" style="isolation:isolate;opacity:0.2"></path><path d="M413.1,236.21l1.32,10.29-9.06-.3s-1.93-7.06,2.92-10.66Z" style="fill:#ffb573"></path><polygon points="411.81 253.4 405.11 251.56 405.36 246.2 414.42 246.5 411.81 253.4" style="fill:#ffb573"></polygon><path d="M399,241.72c-11,3.91-41,7.36-41,7.36s-6.58-30.13-21.4-54.72a102.42,102.42,0,0,1,11.72-5.89A145.85,145.85,0,0,1,363.88,183a73.83,73.83,0,0,1,11.21-1.83,68.79,68.79,0,0,1,8.31,12.24,118.67,118.67,0,0,1,7,14.84A151.86,151.86,0,0,1,399,241.72Z" style="fill:#14B017"></path><path d="M390.36,208.2c-7.45-3.82-10.13-13.74-10.13-13.74a10.42,10.42,0,0,1,3.17-1.1A118.67,118.67,0,0,1,390.36,208.2Z" style="isolation:isolate;opacity:0.2"></path><path d="M386,183.74c3.9,3.24,7.69,6.56,11.43,10,1.87,1.71,3.72,3.44,5.55,5.22s3.65,3.56,5.46,5.48l.44.47c.2.21.36.42.53.63a12.49,12.49,0,0,1,.85,1.24,15.6,15.6,0,0,1,1.15,2.38,26.1,26.1,0,0,1,1.2,4.39,49.53,49.53,0,0,1,.75,8.16,85.23,85.23,0,0,1-1.29,15.59l-5.25-.38c-.3-4.87-.73-9.85-1.44-14.56A50.81,50.81,0,0,0,404,215.6a16.79,16.79,0,0,0-1.07-2.79,8.15,8.15,0,0,0-.59-1,2.53,2.53,0,0,0-.25-.28.31.31,0,0,0-.1-.08l-.05,0-.17-.15c-3.59-3.21-7.46-6.43-11.25-9.67s-7.61-6.5-11.35-9.79Z" style="fill:#ffb573"></path><path d="M375.09,181.13c7-.61,10.94.08,27.43,16.28l-7.39,10.19L384.19,199a19,19,0,0,1-7.65-5.94C373.24,188.7,375.09,181.13,375.09,181.13Z" style="fill:#14B017"></path><polygon points="395.91 208.8 394.02 207.63 402.35 195.69 404 197.59 395.91 208.8" style="fill:#14B017"></polygon><polygon points="395.91 208.8 394.02 207.63 402.35 195.69 404 197.59 395.91 208.8" style="fill:#fff;opacity:0.6000000000000001"></polygon><path d="M356.19,209.23c-1.81,0-3.34-1.37-4.47-4-2.34-5.48-2.24-14.81-.36-16.28a.21.21,0,0,1,.26.32c-1.6,1.25-1.9,10.22.48,15.8.81,1.88,2.25,4,4.57,3.71,3.91-.57,6.16-7.21,6.95-10,1.47-5.28,1.73-11,.56-11.93a.21.21,0,1,1,.26-.32c1.47,1.21,1,7.36-.42,12.36-.81,2.91-3.14,9.73-7.29,10.34A4.9,4.9,0,0,1,356.19,209.23Z" style="fill:#fff"></path><path d="M361.09,223.05l-6.28.92a1.18,1.18,0,0,1-1.36-1.1l-.76-11.34a1.41,1.41,0,0,1,1.18-1.47l6.29-.91a1.16,1.16,0,0,1,1.35,1.1l.77,11.33A1.42,1.42,0,0,1,361.09,223.05Z" style="fill:#fff"></path><path d="M357.46,210.78l-1.18.17a.21.21,0,0,1-.25-.2l-.15-2.14a.27.27,0,0,1,.23-.27l1.18-.17a.21.21,0,0,1,.25.2l.15,2.13A.26.26,0,0,1,357.46,210.78Z" style="fill:#14B017"></path><path d="M365.46,183.45c-1,2.83-9,13-9,13l-7-7.95a5.5,5.5,0,0,0,1.28-1.62,3.89,3.89,0,0,0-.28-4.13,6.7,6.7,0,0,0-1.28-1.27,1.92,1.92,0,0,1-.22-.18l3.52-13.13C354.63,173.2,360.28,182.62,365.46,183.45Z" style="fill:#ffb573"></path><path d="M350.69,186.84a3.89,3.89,0,0,0-.28-4.13,6.7,6.7,0,0,0-1.28-1.27l5.23-9.16C357.65,179.57,353.43,184.65,350.69,186.84Z" style="isolation:isolate;opacity:0.2"></path><path d="M331.89,161.31s-.05,10.32,5.88,13.41,3.16-15.7,3.16-15.7Z" style="fill:#ffb573"></path><path d="M331.89,161.31s-.05,10.32,5.88,13.41,3.16-15.7,3.16-15.7Z" style="isolation:isolate;opacity:0.4"></path><path d="M354.51,180.46a9.27,9.27,0,0,1-10,5.1,10.35,10.35,0,0,1-6.53-3.89,10.17,10.17,0,0,1-.62-.9c-3.55-5.78-6.77-20.85-.05-21.45,5.52-.49,10.54-3.11,14.14,1.1a9.93,9.93,0,0,1,2.14,4.15C355.45,171.67,356.88,175.75,354.51,180.46Z" style="fill:#ffb573"></path><path d="M343.64,170a.93.93,0,0,1-.34,1.25c-.38.12-.82-.25-1-.81s0-1.13.34-1.25S343.45,169.4,343.64,170Z" style="fill:#263238"></path><path d="M337.22,172.06c.22.55,0,1.13-.34,1.25s-.82-.25-1-.81,0-1.13.34-1.25S337,171.53,337.22,172.06Z" style="fill:#263238"></path><path d="M339.35,171.68a21.18,21.18,0,0,1-1.13,5.74,3.45,3.45,0,0,0,2.9-.38Z" style="fill:#ed893e"></path><path d="M345,167.24a.36.36,0,0,1-.36,0,2.83,2.83,0,0,0-2.5-.42.37.37,0,0,1-.46-.19.36.36,0,0,1,.2-.46h0a3.47,3.47,0,0,1,3.15.49.34.34,0,0,1,.1.48h0A.69.69,0,0,1,345,167.24Z" style="fill:#263238"></path><path d="M333.74,170.75a.33.33,0,0,1-.19.08.36.36,0,0,1-.31-.39h0a3.43,3.43,0,0,1,1.79-2.65.34.34,0,0,1,.46.16h0a.36.36,0,0,1-.17.47h0a2.83,2.83,0,0,0-1.38,2.12A.38.38,0,0,1,333.74,170.75Z" style="fill:#263238"></path><path d="M342.5,179.9a.25.25,0,0,1,0-.5c2.29-.31,3-2.94,3-3a.25.25,0,1,1,.49.13c0,.12-.83,3-3.45,3.33Z" style="fill:#263238"></path><path d="M353.63,169.85c.74,0,1.62,3,1.7,5.94h1.29a20.07,20.07,0,0,0,1.12-7.08c-.09-6.15-.93-9.91-2.28-12.62l-9.83,1.45.48,3.22a2.42,2.42,0,0,1,2,2.61c-.29,2.9,2.31,6.56,4.77,7.63C352.85,171,352.6,169.84,353.63,169.85Z" style="fill:#ffb573"></path><path d="M353.63,169.85c.74,0,1.62,3,1.7,5.94h1.29a20.07,20.07,0,0,0,1.12-7.08c-.09-6.15-.93-9.91-2.28-12.62l-9.83,1.45.48,3.22a2.42,2.42,0,0,1,2,2.61c-.29,2.9,2.31,6.56,4.77,7.63C352.85,171,352.6,169.84,353.63,169.85Z" style="isolation:isolate;opacity:0.4"></path><path d="M356.73,159.56a33.81,33.81,0,0,1-10.62,1.2c-10.28-.23-13.85,4.17-13.85,4.17a6.37,6.37,0,0,1-2.93-4.52c-.21-2.91,3.67-4.1,3.67-4.1s.63-3.42,3.09-4.86,5.52.53,5.52.53,2.73-3.74,6.71-3.51a5.82,5.82,0,0,1,5.56,4.77s4.56-.33,4.87,2S356.73,159.56,356.73,159.56Z" style="fill:#263238"></path><path d="M358.5,169.29a7,7,0,0,1-2.71,4.6c-2,1.46-3.82-.09-4-2.4-.16-2.06.65-5.36,3-5.88S358.79,167,358.5,169.29Z" style="fill:#ffb573"></path><polygon points="370.25 180.97 364.84 178.36 357.41 186.02 357.03 195.32 351.76 188.16 348.54 186.68 346.18 190.92 349.13 195.62 351.02 192.95 357.36 198.12 362.07 190.05 365.21 191.6 370.25 180.97" style="fill:#14B017"></polygon><polygon points="370.25 180.97 364.84 178.36 357.41 186.02 357.03 195.32 351.76 188.16 348.54 186.68 346.18 190.92 349.13 195.62 351.02 192.95 357.36 198.12 362.07 190.05 365.21 191.6 370.25 180.97" style="fill:#fff;opacity:0.6000000000000001"></polygon><polygon points="357.36 198.12 351.58 190.8 349.13 195.62 351.02 192.95 357.36 198.12" style="opacity:0.1"></polygon><polygon points="357.36 198.12 360.04 187.95 365.21 191.6 362.07 190.05 357.36 198.12" style="opacity:0.1"></polygon><path d="M279.15,244.41h0a.45.45,0,0,1,0-.63l2.68-2.36a.45.45,0,0,1,.63,0h0a.45.45,0,0,1,0,.63l-2.68,2.36A.44.44,0,0,1,279.15,244.41Z" style="fill:#fff"></path><polygon points="280.67 244.03 279.73 242.96 281.84 239.89 283.97 242.31 280.67 244.03" style="fill:#14B017"></polygon><polygon points="280.67 244.03 279.73 242.96 281.84 239.89 283.97 242.31 280.67 244.03" style="fill:#fff;opacity:0.4"></polygon><path d="M289.22,224h2.23a.56.56,0,0,1,.56.56v20.61a0,0,0,0,1,0,0h-3.36a0,0,0,0,1,0,0V224.53A.56.56,0,0,1,289.22,224Z" transform="translate(274.22 -138.34) rotate(48.59)" style="fill:#14B017"></path><path d="M289.22,224h2.23a.56.56,0,0,1,.56.56v20.61a0,0,0,0,1,0,0h-3.36a0,0,0,0,1,0,0V224.53A.56.56,0,0,1,289.22,224Z" transform="translate(274.22 -138.34) rotate(48.59)" style="fill:#fff;opacity:0.6000000000000001"></path></g></g></svg>
